<svg width="401" height="459" viewBox="0 0 401 459" fill="none" xmlns="http://www.w3.org/2000/svg">
<g opacity="0.1">
<mask id="mask0" mask-type="alpha" maskUnits="userSpaceOnUse" x="0" y="0" width="404" height="507">
<rect width="404" height="507" rx="16" fill="#C4C4C4"/>
</mask>
<g mask="url(#mask0)">
<path d="M165.274 280.526L176.403 196.711L79.7188 129.589L168.056 159.498L188.923 127.502L265.087 80.2042L433.066 172.714L441.76 313.914L366.987 417.901L307.864 426.943L338.469 370.95V317.044L316.211 274.962L293.605 260.008L258.827 295.829V333.738L231.7 359.125L197.269 363.299L181.967 371.994L156.927 363.994L146.493 326.434L165.274 300.002V280.526Z" fill="white"/>
<path d="M319.685 128.895C301.253 125.069 281.081 126.113 281.081 126.113C281.081 126.113 274.473 156.718 233.435 164.716C233.783 164.716 287.689 183.149 319.685 128.895Z" fill="#94A6C3"/>
<path d="M336.376 406.425C358.634 389.036 375.328 365.039 382.979 337.912C383.326 336.869 386.457 335.13 388.543 333.739C392.021 331.652 395.499 329.913 396.194 327.131C397.586 319.132 398.281 310.785 398.281 302.439C398.281 299.308 395.151 296.178 392.021 293.048C389.586 290.961 387.152 288.527 387.152 286.788C383.674 255.14 369.067 225.578 345.766 204.016L343.332 206.451C365.937 227.665 380.544 256.531 383.674 287.136C384.022 289.918 386.804 292.701 389.586 295.483C392.021 297.57 394.803 300.699 394.803 302.09C394.803 310.09 394.108 318.088 392.717 326.088C392.368 327.479 389.239 328.87 386.804 330.261C383.326 332 380.197 333.739 379.501 336.521C371.154 366.082 352.026 391.818 326.638 408.512C331.159 398.774 345.418 367.126 353.069 351.128L351.678 299.656L307.51 256.879L282.469 260.356L254.995 304.873C254.995 304.873 267.862 321.219 249.778 340.346C232.041 359.127 218.13 363.3 218.13 363.3L205.262 356.344C209.088 351.475 216.739 344.172 222.651 339.303C232.737 330.957 242.822 330.261 242.822 321.219C243.17 302.439 222.999 307.655 222.999 307.655L215.695 314.61L212.565 340.346L197.263 359.475L195.524 359.127L170.483 353.562C170.483 353.562 185.786 345.564 188.221 336.521C190.655 327.826 183.352 298.961 183.004 297.221C183.352 297.57 190.307 303.481 193.437 313.219C199.002 297.917 206.305 283.31 208.392 281.919C210.479 280.528 238.649 265.574 238.649 265.574L229.259 290.266L236.215 286.441L252.908 245.402C252.908 245.402 269.254 237.403 281.426 237.403C303.336 237.055 335.68 210.276 321.074 162.282C325.247 164.021 397.586 200.191 410.106 271.138C419.496 325.74 388.543 376.864 336.376 406.425Z" fill="#94A6C3"/>
<path d="M253.611 136.549C261.61 127.158 258.48 113.247 258.48 113.247L235.179 147.678C234.831 147.678 243.526 148.025 253.611 136.549Z" fill="#1B314F"/>
<path d="M175.361 324.699L178.143 310.788C178.143 310.788 166.666 330.959 165.623 333.742C164.579 336.872 166.318 342.437 170.839 342.088C175.361 341.741 180.925 335.133 180.925 330.264C180.925 324.004 175.361 324.699 175.361 324.699Z" fill="#1B314F"/>
<path d="M381.941 103.51C381.941 103.51 399.33 104.205 417.414 106.292C376.724 74.2959 338.12 64.9057 306.82 64.9057C263.695 64.9057 234.482 82.6426 232.742 83.686L246.306 62.1235C246.306 62.1235 192.051 56.9067 172.924 114.291C168.055 102.118 163.533 84.3815 163.533 84.3815C163.533 84.3815 135.363 109.074 148.579 150.113C116.235 138.288 69.9802 121.942 68.2413 121.594C65.8069 121.246 65.1113 122.29 65.1113 122.29C65.1113 122.29 64.4157 123.333 66.5024 125.072C70.328 128.202 143.362 182.108 159.36 192.542C155.882 205.062 155.882 210.974 159.36 216.887C164.229 224.885 164.577 229.059 163.881 234.971C163.186 240.883 156.926 292.008 155.535 298.268C154.144 304.528 139.537 326.786 140.232 333.393C140.928 340.002 149.97 368.172 157.97 371.302C163.881 373.389 178.488 377.91 188.226 377.91C191.704 377.91 194.834 377.214 196.226 375.823C202.138 370.606 203.876 369.563 208.05 369.563C208.398 369.563 208.746 369.563 209.093 369.563C210.832 369.563 212.919 369.911 215.353 369.911C220.918 369.911 228.222 368.867 233.438 363.998C241.089 356.347 254.305 345.914 258.478 341.045C263.695 334.437 266.478 325.395 265.086 316.352C264.043 308.006 268.564 300.702 273.781 293.399C280.389 284.704 292.561 269.054 292.561 269.054C316.558 287.139 331.513 314.613 331.513 345.218C331.513 399.472 284.214 443.293 225.787 443.293C216.744 443.293 208.05 442.25 199.355 440.163C226.135 449.553 248.74 452.683 267.173 452.683C306.472 452.683 327.339 438.424 327.339 438.424C327.339 438.424 320.035 447.814 308.211 458.595C308.559 458.595 308.559 458.595 308.559 458.595C373.594 449.553 405.242 395.994 405.242 395.994C405.242 395.994 402.808 413.383 399.678 425.208C486.275 360.173 471.668 278.792 471.321 276.01C472.017 277.053 480.711 287.486 485.232 293.051C499.144 149.764 381.941 103.51 381.941 103.51ZM248.74 332.35C247.349 334.089 241.437 339.306 237.263 343.131C233.091 346.957 228.569 350.782 225.091 354.26C223.7 355.651 220.918 356.347 216.744 356.347C215.353 356.347 213.962 356.347 212.918 356.347C212.224 356.347 211.528 356.347 210.832 356.347C210.137 356.347 209.789 356.347 209.441 356.347C208.398 356.347 207.354 356.347 206.311 356.347C211.528 349.391 226.83 333.393 232.047 329.916C238.307 325.742 241.437 321.569 237.611 314.266C233.785 306.962 223.7 308.701 223.7 308.701C223.7 308.701 229.613 306.266 234.829 306.266C228.222 304.528 219.875 306.266 216.049 310.092C211.875 313.918 212.571 327.481 210.832 336.176C209.093 345.218 203.18 349.74 194.139 358.086C189.269 362.607 185.792 363.998 183.01 363.998C177.097 362.955 170.142 361.216 165.273 359.477C161.795 354.956 156.578 340.002 155.187 333.742C156.23 330.264 160.404 322.96 162.49 318.787C166.664 310.788 169.099 306.266 169.793 302.093C171.184 296.181 175.706 259.664 177.445 244.361C181.966 250.274 188.226 260.012 186.835 266.272C196.921 252.012 189.617 238.101 186.14 232.537C183.01 226.972 178.836 215.843 182.314 204.018C185.792 192.194 198.312 159.502 198.312 159.502C198.312 159.502 202.486 166.806 208.398 165.415C214.31 164.024 261.956 92.3805 261.956 92.3805C261.956 92.3805 274.824 120.551 261.261 141.07C247.349 161.589 233.785 165.415 233.785 165.415C233.785 165.415 252.914 168.893 270.651 156.024C277.954 173.066 284.91 190.803 285.258 193.238C284.214 195.672 270.303 229.059 268.912 231.145C268.216 231.841 263.347 233.232 259.869 233.928C253.957 235.667 250.48 236.71 249.089 237.754C246.654 239.84 235.525 270.445 230.307 285.399C224.048 287.139 217.787 290.617 213.267 297.572C215.701 295.833 223.352 294.79 228.917 294.094C233.785 293.746 248.74 301.746 252.566 316.7C252.566 317.048 252.566 317.048 252.566 317.395C253.262 322.96 251.523 328.177 248.74 332.35ZM216.049 336.524C219.179 332.002 218.831 324.351 219.179 321.917C219.527 319.482 220.222 314.961 223.004 314.266C225.787 313.57 232.395 314.613 232.395 319.482C232.395 324.004 227.526 325.047 224.048 328.177C221.613 330.611 216.744 335.828 216.049 336.524ZM354.814 270.097C358.291 252.36 358.64 237.058 357.596 224.538C371.16 242.623 379.507 264.532 381.941 287.139C382.289 289.921 385.071 292.703 387.853 295.485C390.287 297.572 393.07 300.354 393.07 302.093C393.07 310.092 392.374 318.091 390.983 326.09C390.636 327.133 387.505 328.873 385.071 330.264C381.593 332.002 378.464 333.742 377.767 336.524C370.117 363.303 353.771 386.952 331.86 403.645C364.204 369.911 379.854 314.266 354.814 270.097ZM332.904 406.776C355.509 389.387 372.898 365.042 380.549 337.567C380.898 336.524 384.028 334.784 386.114 333.393C389.592 331.655 393.07 329.568 393.765 326.786C395.156 318.787 395.852 310.44 395.852 302.093C395.852 298.963 392.722 295.833 389.592 292.703C387.853 290.617 385.071 288.182 385.071 286.443C382.289 261.055 372.203 237.058 356.553 217.234C349.597 175.5 321.775 162.633 321.079 162.285C321.775 163.328 339.859 189.412 327.339 220.016C314.471 250.969 281.432 246.1 278.65 246.448C275.867 246.448 265.086 260.359 251.523 286.095C249.784 285.399 242.48 283.661 234.133 285.052C240.394 267.663 249.784 242.97 251.523 240.883C252.218 240.188 257.435 238.797 260.913 237.754C267.521 236.014 270.651 234.971 271.694 233.58C272.39 232.537 275.867 224.538 279.345 216.191C282.475 216.191 290.474 215.496 291.17 215.147C291.865 214.452 298.473 197.411 298.473 195.324C298.473 193.585 284.91 159.85 279.693 146.982C282.127 144.2 284.562 140.722 286.996 136.897C358.291 144.548 413.937 205.062 413.937 278.444C413.937 334.784 380.898 383.822 332.904 406.776Z" fill="#1B314F"/>
<path d="M240.393 218.973C247.001 211.322 243.523 197.063 231.35 194.629C234.481 187.325 239.002 172.718 239.002 172.718C239.002 172.718 203.528 228.363 200.398 229.407C197.268 230.45 194.138 218.278 194.138 218.278C187.53 243.665 205.267 247.143 207.354 239.145C217.092 236.71 233.785 226.276 240.393 218.973Z" fill="#1B314F"/>
<path d="M210.137 232.539L228.221 201.586C228.221 201.586 238.655 206.803 233.439 215.15C226.83 224.887 210.137 232.539 210.137 232.539Z" fill="#FFD923"/>
<path d="M475.489 264.881C459.839 222.8 437.581 186.978 388.544 154.634C341.245 123.334 290.469 125.768 287.687 126.116C287.339 126.116 286.991 126.116 286.991 126.116C288.73 125.42 290.469 125.072 292.208 124.725C302.989 121.247 316.9 118.465 330.812 116.726C367.677 111.509 404.889 124.029 430.278 150.808C430.625 151.156 430.625 151.156 430.973 151.504C459.839 182.109 474.794 220.365 475.489 264.881Z" fill="#D82122"/>
<path d="M377.414 92.7297C325.594 82.9918 292.207 87.8607 268.21 96.9031C267.515 94.1208 265.08 88.5563 262.993 84.0351C255.69 92.7297 248.039 103.163 243.17 109.771C229.954 118.813 224.39 127.508 224.39 127.508C232.041 101.424 254.299 81.9484 281.426 77.0795C289.077 75.6884 297.424 74.9928 306.466 74.9928C330.463 75.3406 354.46 81.2529 377.414 92.7297Z" fill="#D82122"/>
<path d="M185.785 159.504C145.094 158.113 158.658 110.814 159.354 108.032C159.354 108.38 162.136 145.245 185.785 159.504Z" fill="#D82122"/>
<path d="M225.78 74.2965C194.48 93.0767 200.74 137.94 200.74 137.94C170.83 92.3811 223.346 75.3399 225.78 74.2965Z" fill="#D82122"/>
<path d="M174.321 172.022C176.408 173.761 178.494 176.891 176.06 181.412C174.669 183.847 172.583 183.499 169.452 182.108C165.279 180.021 140.238 165.415 117.633 150.459C143.369 159.502 169.452 169.24 173.625 171.326C173.625 171.326 173.974 171.675 174.321 172.022Z" fill="white"/>
</g>
</g>
</svg>
