<svg width="16" height="16" viewBox="0 0 16 16" fill="none" xmlns="http://www.w3.org/2000/svg">
<circle cx="8" cy="8" r="8" fill="url(#paint0_linear)"/>
<path d="M7.77877 2.40002L7.87351 2.49966L7.86371 2.52988C7.80817 2.67608 7.79919 2.83371 7.80327 2.9897L7.81716 6.57839C6.63699 7.08476 5.48296 7.65076 4.30279 8.15876C4.36486 7.92763 4.51432 7.73733 4.63519 7.53478L7.77877 2.40002V2.40002ZM4.28809 8.84726C5.47071 9.49982 6.62556 10.2006 7.80246 10.8638L7.80491 13.2813C7.80428 13.3897 7.82453 13.4973 7.86453 13.5982L7.83186 13.7174C7.7363 13.6161 7.64973 13.5075 7.57132 13.3932L4.28809 8.84726V8.84726Z" fill="#828384"/>
<path d="M7.8031 2.98972C7.79902 2.83373 7.808 2.6761 7.86354 2.52991L11.3371 8.17103C11.0692 8.1106 10.8421 7.95623 10.6037 7.82964C9.67586 7.40984 8.7211 7.04885 7.81699 6.57842C7.79167 5.38191 7.81862 4.18541 7.8031 2.98972V2.98972Z" fill="#313232"/>
<path d="M4.30273 8.15873C5.4829 7.65073 6.63694 7.08474 7.81711 6.57837C7.86121 7.34037 7.82201 8.10401 7.83589 8.86683C7.85141 9.29643 7.78934 9.73338 7.88653 10.1573L7.89306 10.1924C7.76157 10.1997 7.65621 10.1148 7.54759 10.0544L4.30273 8.15873ZM7.80241 10.8637L11.3111 8.85622L7.86448 13.5981C7.82447 13.4973 7.80423 13.3897 7.80486 13.2812L7.80241 10.8637Z" fill="#313232"/>
<path d="M7.81738 6.57837C8.7215 7.0488 9.67625 7.4098 10.6041 7.82959C10.8425 7.95619 11.0696 8.11055 11.3375 8.17098L7.8868 10.1573C7.78961 9.73338 7.85169 9.29643 7.83617 8.86683C7.82228 8.10401 7.86149 7.34037 7.81738 6.57837V6.57837Z" fill="#131313"/>
<defs>
<linearGradient id="paint0_linear" x1="3.39265" y1="1.46326" x2="12.6728" y2="14.629" gradientUnits="userSpaceOnUse">
<stop stop-color="#613FC3"/>
<stop offset="1" stop-color="#00A7A7"/>
</linearGradient>
</defs>
</svg>
