<svg width="34" height="34" viewBox="0 0 34 34" fill="none" xmlns="http://www.w3.org/2000/svg">
<rect y="34" width="34" height="34" rx="6" transform="rotate(-90 0 34)" fill="#1F1F1F"/>
<path d="M10 21.5254V22.3457H19.8984V23.166H22.3594V22.3457H24V21.5254H22.3594V20.7051H19.8984V21.5254H10ZM21.5391 21.5254V22.3457H20.7188V21.5254H21.5391Z" fill="white"/>
<path d="M19.8984 10.834V11.6543H10V12.4746H19.8984V13.2949H22.3594V12.4746H24V11.6543H22.3594V10.834H19.8984ZM21.5391 11.6543V12.4746H20.7188V11.6543H21.5391Z" fill="white"/>
<path d="M10 14.9355V15.7559H16.0703V16.5762H18.5312V15.7559H24V14.9355H18.5312V14.1152H16.0703V14.9355H10ZM17.7109 14.9355V15.7559H16.8906V14.9355H17.7109Z" fill="white"/>
<path d="M10 18.2441V19.0645H11.467V19.8848H13.928V19.0645H24V18.2441H13.928V17.4238H11.467V18.2441H10ZM13.1077 18.2441V19.0645H12.2874V18.2441H13.1077Z" fill="white"/>
</svg>
