<svg width="94" height="38" viewBox="0 0 94 38" fill="none" xmlns="http://www.w3.org/2000/svg">
<path d="M52.4062 19.6426C52.4062 20.1074 52.3184 20.5449 52.1426 20.9551C51.9668 21.3613 51.7266 21.7168 51.4219 22.0215C51.1172 22.3223 50.7598 22.5605 50.3496 22.7363C49.9434 22.9121 49.5078 23 49.043 23C48.5781 23 48.1406 22.9121 47.7305 22.7363C47.3242 22.5605 46.9688 22.3223 46.6641 22.0215C46.3633 21.7168 46.125 21.3613 45.9492 20.9551C45.7734 20.5449 45.6855 20.1074 45.6855 19.6426V14.5977H47.3613V19.6426C47.3613 19.873 47.4043 20.0898 47.4902 20.293C47.5801 20.4961 47.7012 20.6738 47.8535 20.8262C48.0059 20.9785 48.1836 21.0996 48.3867 21.1895C48.5938 21.2754 48.8125 21.3184 49.043 21.3184C49.2734 21.3184 49.4902 21.2754 49.6934 21.1895C49.9004 21.0996 50.0801 20.9785 50.2324 20.8262C50.3848 20.6738 50.5039 20.4961 50.5898 20.293C50.6797 20.0898 50.7246 19.873 50.7246 19.6426V14.5977H52.4062V19.6426ZM55.1777 23H53.5781V16.7246H53.9648L54.4922 17.334C54.75 17.0996 55.041 16.9199 55.3652 16.7949C55.6934 16.666 56.0352 16.6016 56.3906 16.6016C56.7734 16.6016 57.1348 16.6758 57.4746 16.8242C57.8145 16.9688 58.1113 17.1699 58.3652 17.4277C58.6191 17.6816 58.8184 17.9805 58.9629 18.3242C59.1113 18.6641 59.1855 19.0273 59.1855 19.4141V23H57.5859V19.4141C57.5859 19.25 57.5547 19.0957 57.4922 18.9512C57.4297 18.8027 57.3438 18.6738 57.2344 18.5645C57.125 18.4551 56.998 18.3691 56.8535 18.3066C56.709 18.2441 56.5547 18.2129 56.3906 18.2129C56.2227 18.2129 56.0645 18.2441 55.916 18.3066C55.7676 18.3691 55.6387 18.4551 55.5293 18.5645C55.4199 18.6738 55.334 18.8027 55.2715 18.9512C55.209 19.0957 55.1777 19.25 55.1777 19.4141V23ZM62.2148 15.0195C62.2148 15.168 62.1855 15.3066 62.127 15.4355C62.0723 15.5645 61.9961 15.6777 61.8984 15.7754C61.8008 15.8691 61.6855 15.9453 61.5527 16.0039C61.4238 16.0586 61.2852 16.0859 61.1367 16.0859C60.9883 16.0859 60.8477 16.0586 60.7148 16.0039C60.5859 15.9453 60.4727 15.8691 60.375 15.7754C60.2812 15.6777 60.2051 15.5645 60.1465 15.4355C60.0918 15.3066 60.0645 15.168 60.0645 15.0195C60.0645 14.875 60.0918 14.7383 60.1465 14.6094C60.2051 14.4766 60.2812 14.3633 60.375 14.2695C60.4727 14.1719 60.5859 14.0957 60.7148 14.041C60.8477 13.9824 60.9883 13.9531 61.1367 13.9531C61.2852 13.9531 61.4238 13.9824 61.5527 14.041C61.6855 14.0957 61.8008 14.1719 61.8984 14.2695C61.9961 14.3633 62.0723 14.4766 62.127 14.6094C62.1855 14.7383 62.2148 14.875 62.2148 15.0195ZM61.9395 23H60.3281V16.7246H61.9395V23ZM62.8418 17.1172C62.8418 16.7695 62.9082 16.4434 63.041 16.1387C63.1738 15.834 63.3535 15.5684 63.5801 15.3418C63.8105 15.1113 64.0781 14.9297 64.3828 14.7969C64.6875 14.6641 65.0137 14.5977 65.3613 14.5977H69.2168V16.2793H65.3613C65.2441 16.2793 65.1348 16.3008 65.0332 16.3438C64.9316 16.3867 64.8418 16.4473 64.7637 16.5254C64.6895 16.5996 64.6309 16.6875 64.5879 16.7891C64.5449 16.8906 64.5234 17 64.5234 17.1172C64.5234 17.2344 64.5449 17.3457 64.5879 17.4512C64.6309 17.5527 64.6895 17.6426 64.7637 17.7207C64.8418 17.7949 64.9316 17.8535 65.0332 17.8965C65.1348 17.9395 65.2441 17.9609 65.3613 17.9609H67.043C67.3906 17.9609 67.7168 18.0273 68.0215 18.1602C68.3301 18.2891 68.5977 18.4688 68.8242 18.6992C69.0547 18.9258 69.2344 19.1934 69.3633 19.502C69.4961 19.8066 69.5625 20.1328 69.5625 20.4805C69.5625 20.8281 69.4961 21.1543 69.3633 21.459C69.2344 21.7637 69.0547 22.0312 68.8242 22.2617C68.5977 22.4883 68.3301 22.668 68.0215 22.8008C67.7168 22.9336 67.3906 23 67.043 23H63.3105V21.3184H67.043C67.1602 21.3184 67.2695 21.2969 67.3711 21.2539C67.4727 21.2109 67.5605 21.1523 67.6348 21.0781C67.7129 21 67.7734 20.9102 67.8164 20.8086C67.8594 20.707 67.8809 20.5977 67.8809 20.4805C67.8809 20.3633 67.8594 20.2539 67.8164 20.1523C67.7734 20.0508 67.7129 19.9629 67.6348 19.8887C67.5605 19.8105 67.4727 19.75 67.3711 19.707C67.2695 19.6641 67.1602 19.6426 67.043 19.6426H65.3613C65.0137 19.6426 64.6875 19.5762 64.3828 19.4434C64.0781 19.3105 63.8105 19.1309 63.5801 18.9043C63.3535 18.6738 63.1738 18.4062 63.041 18.1016C62.9082 17.793 62.8418 17.4648 62.8418 17.1172ZM78.3633 20.7324C78.3633 21.0605 78.3008 21.3711 78.1758 21.6641C78.0508 21.9531 77.8789 22.2051 77.6602 22.4199C77.4453 22.6348 77.1914 22.8047 76.8984 22.9297C76.6094 23.0547 76.2988 23.1172 75.9668 23.1172C75.6699 23.1172 75.3848 23.0664 75.1113 22.9648C74.8379 22.8594 74.5898 22.707 74.3672 22.5078C74.1484 22.707 73.9023 22.8594 73.6289 22.9648C73.3594 23.0664 73.0742 23.1172 72.7734 23.1172C72.4414 23.1172 72.1309 23.0547 71.8418 22.9297C71.5527 22.8047 71.2988 22.6348 71.0801 22.4199C70.8652 22.2051 70.6953 21.9531 70.5703 21.6641C70.4453 21.3711 70.3828 21.0605 70.3828 20.7324V16.7363H71.9824V20.7324C71.9824 20.8418 72.002 20.9453 72.041 21.043C72.084 21.1367 72.1406 21.2207 72.2109 21.2949C72.2852 21.3652 72.3691 21.4219 72.4629 21.4648C72.5605 21.5039 72.6641 21.5234 72.7734 21.5234C72.8828 21.5234 72.9863 21.5039 73.084 21.4648C73.1816 21.4219 73.2676 21.3652 73.3418 21.2949C73.416 21.2207 73.4727 21.1367 73.5117 21.043C73.5547 20.9453 73.5762 20.8418 73.5762 20.7324V16.7363H75.1699V20.7324C75.1699 20.8418 75.1914 20.9453 75.2344 21.043C75.2773 21.1367 75.334 21.2207 75.4043 21.2949C75.4785 21.3652 75.5625 21.4219 75.6562 21.4648C75.7539 21.5039 75.8574 21.5234 75.9668 21.5234C76.0762 21.5234 76.1797 21.5039 76.2773 21.4648C76.375 21.4219 76.459 21.3652 76.5293 21.2949C76.6035 21.2207 76.6621 21.1367 76.7051 21.043C76.748 20.9453 76.7695 20.8418 76.7695 20.7324V16.7363H78.3633V20.7324ZM85.5996 23H85.2129L84.5918 22.1387C84.4395 22.2754 84.2773 22.4043 84.1055 22.5254C83.9375 22.6426 83.7598 22.7461 83.5723 22.8359C83.3848 22.9219 83.1914 22.9902 82.9922 23.041C82.7969 23.0918 82.5977 23.1172 82.3945 23.1172C81.9531 23.1172 81.5371 23.043 81.1465 22.8945C80.7598 22.7461 80.4199 22.5312 80.127 22.25C79.8379 21.9648 79.6094 21.6172 79.4414 21.207C79.2734 20.7969 79.1895 20.3301 79.1895 19.8066C79.1895 19.3184 79.2734 18.8711 79.4414 18.4648C79.6094 18.0547 79.8379 17.7031 80.127 17.4102C80.4199 17.1172 80.7598 16.8906 81.1465 16.7305C81.5371 16.5664 81.9531 16.4844 82.3945 16.4844C82.5977 16.4844 82.7988 16.5098 82.998 16.5605C83.1973 16.6113 83.3906 16.6816 83.5781 16.7715C83.7656 16.8613 83.9434 16.9668 84.1113 17.0879C84.2832 17.209 84.4434 17.3398 84.5918 17.4805L85.2129 16.7363H85.5996V23ZM83.9883 19.8066C83.9883 19.5879 83.9453 19.377 83.8594 19.1738C83.7773 18.9668 83.6641 18.7852 83.5195 18.6289C83.375 18.4688 83.2051 18.3418 83.0098 18.248C82.8184 18.1504 82.6133 18.1016 82.3945 18.1016C82.1758 18.1016 81.9688 18.1387 81.7734 18.2129C81.582 18.2871 81.4141 18.3965 81.2695 18.541C81.1289 18.6855 81.0176 18.8652 80.9355 19.0801C80.8535 19.291 80.8125 19.5332 80.8125 19.8066C80.8125 20.0801 80.8535 20.3242 80.9355 20.5391C81.0176 20.75 81.1289 20.9277 81.2695 21.0723C81.4141 21.2168 81.582 21.3262 81.7734 21.4004C81.9688 21.4746 82.1758 21.5117 82.3945 21.5117C82.6133 21.5117 82.8184 21.4648 83.0098 21.3711C83.2051 21.2734 83.375 21.1465 83.5195 20.9902C83.6641 20.8301 83.7773 20.6484 83.8594 20.4453C83.9453 20.2383 83.9883 20.0254 83.9883 19.8066ZM88.4355 25.3906H86.8242V16.7246H87.2109L87.8496 17.4805C87.9941 17.3438 88.1523 17.2148 88.3242 17.0938C88.4961 16.9727 88.6738 16.8691 88.8574 16.7832C89.0449 16.6934 89.2383 16.623 89.4375 16.5723C89.6367 16.5215 89.8379 16.4961 90.041 16.4961C90.4824 16.4961 90.8965 16.5762 91.2832 16.7363C91.6738 16.8926 92.0137 17.1152 92.3027 17.4043C92.5957 17.6934 92.8262 18.043 92.9941 18.4531C93.1621 18.8594 93.2461 19.3105 93.2461 19.8066C93.2461 20.3223 93.1621 20.7871 92.9941 21.2012C92.8262 21.6113 92.5957 21.9609 92.3027 22.25C92.0137 22.5352 91.6738 22.7539 91.2832 22.9062C90.8965 23.0586 90.4824 23.1348 90.041 23.1348C89.9004 23.1348 89.7598 23.1191 89.6191 23.0879C89.4824 23.0566 89.3457 23.0156 89.209 22.9648C89.0762 22.9102 88.9434 22.8496 88.8105 22.7832C88.6816 22.7168 88.5566 22.6484 88.4355 22.5781V25.3906ZM91.6406 19.8066C91.6406 19.541 91.5977 19.3027 91.5117 19.0918C91.4297 18.8809 91.3164 18.7031 91.1719 18.5586C91.0273 18.4102 90.8574 18.2969 90.6621 18.2188C90.4668 18.1406 90.2598 18.1016 90.041 18.1016C89.8223 18.1016 89.6152 18.1406 89.4199 18.2188C89.2285 18.2969 89.0605 18.4102 88.916 18.5586C88.7715 18.7031 88.6562 18.8809 88.5703 19.0918C88.4883 19.3027 88.4473 19.541 88.4473 19.8066C88.4473 20.0605 88.4883 20.293 88.5703 20.5039C88.6562 20.7148 88.7715 20.8945 88.916 21.043C89.0605 21.1914 89.2285 21.3066 89.4199 21.3887C89.6152 21.4707 89.8223 21.5117 90.041 21.5117C90.2598 21.5117 90.4668 21.4707 90.6621 21.3887C90.8574 21.3066 91.0273 21.1914 91.1719 21.043C91.3164 20.8945 91.4297 20.7148 91.5117 20.5039C91.5977 20.293 91.6406 20.0605 91.6406 19.8066Z" fill="white"/>
<g clip-path="url(#clip0)">
<path d="M10.3803 3.87858C9.91013 3.80611 9.89031 3.79761 10.1115 3.76381C10.5355 3.69901 11.5366 3.78733 12.2265 3.95036C13.8371 4.33086 15.3026 5.30558 16.8669 7.03671L17.2825 7.49661L17.877 7.40161C20.3817 7.00156 22.9297 7.31951 25.0608 8.29801C25.6471 8.56721 26.5716 9.10308 26.6871 9.24078C26.7238 9.28466 26.7913 9.56716 26.8371 9.86861C26.9953 10.9115 26.9161 11.7109 26.5953 12.308C26.4206 12.6329 26.4108 12.7359 26.5283 13.0139C26.6221 13.2358 26.8833 13.4 27.1421 13.3997C27.6716 13.399 28.2418 12.5481 28.5058 11.3641L28.6108 10.8938L28.8186 11.1278C29.9586 12.4115 30.8541 14.1623 31.0078 15.4084L31.0478 15.7334L30.8563 15.438C30.5266 14.9297 30.1951 14.5837 29.7708 14.3046C29.0058 13.8016 28.1971 13.6304 26.0553 13.5182C24.1208 13.4169 23.026 13.2527 21.9404 12.9009C20.0933 12.3023 19.1622 11.5052 16.9681 8.64406C15.9935 7.37326 15.3912 6.67016 14.792 6.10393C13.4305 4.81733 12.0927 4.14258 10.3803 3.87858Z" fill="white"/>
<path d="M27.1236 6.71591C27.1724 5.86436 27.2884 5.30268 27.5221 4.78973C27.6146 4.58671 27.7011 4.42053 27.7146 4.42053C27.7279 4.42053 27.6876 4.57038 27.6251 4.75353C27.4554 5.25133 27.4274 5.93223 27.5444 6.72443C27.6929 7.72958 27.7774 7.87461 28.8464 8.96038C29.3476 9.46968 29.9309 10.112 30.1421 10.3878L30.5266 10.8892L30.1421 10.5308C29.6721 10.0926 28.5911 9.23798 28.3524 9.11581C28.1921 9.03388 28.1684 9.03531 28.0696 9.13301C27.9786 9.22303 27.9594 9.35831 27.9469 9.99786C27.9271 10.9946 27.7904 11.6344 27.4606 12.2741C27.2821 12.6201 27.2539 12.5463 27.4154 12.1557C27.5359 11.8641 27.5481 11.736 27.5474 10.771C27.5454 8.83226 27.3139 8.36616 25.9559 7.56771C25.6119 7.36543 25.0449 7.07373 24.6961 6.91943C24.3473 6.76513 24.0703 6.63073 24.0803 6.62068C24.1188 6.58266 25.4431 6.96686 25.9764 7.17068C26.7694 7.47383 26.9001 7.51313 26.9964 7.47656C27.0611 7.45203 27.0924 7.26518 27.1236 6.71591Z" fill="white"/>
<path d="M11.2938 10.0326C10.3394 8.72663 9.74885 6.72431 9.8767 5.22748L9.91622 4.76428L10.1335 4.80368C10.5414 4.87763 11.2449 5.13786 11.5742 5.33671C12.4781 5.88231 12.8695 6.60066 13.2676 8.44526C13.3842 8.98556 13.5372 9.59698 13.6076 9.80398C13.7209 10.1372 14.1492 10.9154 14.4974 11.4208C14.7482 11.7849 14.5816 11.9574 14.0272 11.9076C13.1805 11.8317 12.0336 11.045 11.2938 10.0326Z" fill="white"/>
<path d="M25.9656 19.7522C21.5054 17.9673 19.9346 16.418 19.9346 13.8039C19.9346 13.4192 19.9479 13.1045 19.9641 13.1045C19.9804 13.1045 20.1529 13.2314 20.3476 13.3866C21.252 14.1076 22.2648 14.4156 25.0686 14.8221C26.7186 15.0614 27.6471 15.2546 28.5036 15.5369C31.2258 16.4343 32.9101 18.2553 33.3118 20.7357C33.4286 21.4564 33.3601 22.8079 33.1708 23.5203C33.0216 24.0829 32.5656 25.097 32.4446 25.136C32.4111 25.1468 32.3783 25.019 32.3696 24.8452C32.3238 23.9139 31.8503 23.0071 31.0551 22.3279C30.1508 21.5557 28.9361 20.9408 25.9656 19.7522Z" fill="white"/>
<path d="M22.8345 20.4938C22.7786 20.1632 22.6816 19.7411 22.6191 19.5557L22.5053 19.2188L22.7166 19.4545C23.0092 19.7809 23.2403 20.1985 23.4363 20.7547C23.5858 21.1792 23.6026 21.3054 23.6015 21.9952C23.6003 22.6724 23.5817 22.8144 23.4436 23.1965C23.2259 23.799 22.9557 24.2262 22.5023 24.6848C21.6875 25.509 20.64 25.9653 19.1284 26.1545C18.8657 26.1873 18.0998 26.2428 17.4266 26.2775C15.7298 26.3653 14.6131 26.5465 13.6097 26.8968C13.4654 26.947 13.3366 26.9778 13.3235 26.9648C13.2829 26.9245 13.9661 26.5198 14.5304 26.2495C15.3261 25.8685 16.1182 25.6608 17.8928 25.367C18.7695 25.2218 19.6748 25.0458 19.9047 24.9758C22.0757 24.3142 23.1916 22.6069 22.8345 20.4938Z" fill="white"/>
<path d="M24.8795 24.1028C24.2869 22.8366 24.1508 21.6142 24.4755 20.4741C24.5102 20.3523 24.5661 20.2526 24.5997 20.2526C24.6332 20.2526 24.7731 20.3277 24.9104 20.4195C25.1835 20.6022 25.7313 20.9099 27.1903 21.7006C29.011 22.6873 30.0493 23.4513 30.7553 24.3242C31.3735 25.0886 31.756 25.9593 31.9403 27.0211C32.0445 27.6223 31.9833 29.0693 31.828 29.6748C31.3385 31.5843 30.2008 33.0841 28.578 33.9593C28.3403 34.0876 28.1268 34.1928 28.1038 34.1933C28.0805 34.1938 28.1673 33.9748 28.2963 33.7068C28.842 32.5726 28.9043 31.4693 28.4915 30.2413C28.2388 29.4893 27.7235 28.5718 26.6833 27.0211C25.4735 25.2183 25.177 24.7385 24.8795 24.1028Z" fill="white"/>
<path d="M8.12608 30.9342C9.78123 29.5452 11.8407 28.5584 13.7166 28.2554C14.5251 28.1249 15.8719 28.1767 16.6205 28.3672C17.8205 28.6724 18.894 29.3562 19.4523 30.1707C19.9979 30.9667 20.232 31.6604 20.4757 33.2039C20.5718 33.8129 20.6764 34.4242 20.708 34.5627C20.891 35.3627 21.2472 36.0019 21.6885 36.3232C22.3895 36.8332 23.5966 36.8647 24.784 36.4044C24.9855 36.3262 25.1604 36.2722 25.1727 36.2844C25.2159 36.3269 24.6179 36.7247 24.1961 36.9342C23.6285 37.2159 23.1772 37.3249 22.5775 37.3249C21.49 37.3249 20.5871 36.7752 19.8337 35.6539C19.6854 35.4332 19.3522 34.7724 19.0932 34.1852C18.2977 32.3819 17.9049 31.8327 16.9813 31.2314C16.1775 30.7084 15.141 30.6147 14.3612 30.9947C13.3368 31.4939 13.051 32.7949 13.7847 33.6194C14.0763 33.9472 14.62 34.2297 15.0646 34.2847C15.8965 34.3877 16.6113 33.7587 16.6113 32.9239C16.6113 32.3819 16.4017 32.0727 15.8741 31.8359C15.1534 31.5127 14.3788 31.8904 14.3825 32.5634C14.3841 32.8504 14.5098 33.0304 14.7992 33.1607C14.9849 33.2442 14.9892 33.2507 14.8378 33.2194C14.1766 33.0832 14.0217 32.2909 14.5533 31.7649C15.1916 31.1337 16.5115 31.4122 16.9647 32.2742C17.1551 32.6362 17.1772 33.3572 17.0112 33.7924C16.6397 34.7669 15.5563 35.2792 14.4574 35.0004C13.7091 34.8104 13.4045 34.6049 12.5024 33.6814C10.9348 32.0764 10.3263 31.7654 8.06635 31.4149L7.6333 31.3477L8.12608 30.9342Z" fill="white"/>
<path fill-rule="evenodd" clip-rule="evenodd" d="M0.770957 2.20996C6.00587 8.5249 9.61142 11.1303 10.0121 11.6808C10.3429 12.1353 10.2184 12.5439 9.65168 12.8642C9.3365 13.0422 8.68852 13.2226 8.3641 13.2226C7.99717 13.2226 7.87117 13.0819 7.87117 13.0819C7.65842 12.8814 7.5386 12.9164 6.446 10.9889C4.92915 8.64952 3.65972 6.70892 3.6251 6.67642C3.54502 6.6013 3.5464 6.60383 6.29135 11.4853C6.73485 12.5028 6.37955 12.8762 6.37955 13.0211C6.37955 13.3159 6.29865 13.4709 5.93278 13.8765C5.32285 14.5528 5.0502 15.3126 4.85337 16.8852C4.63275 18.6481 4.0123 19.8934 2.29289 22.0247C1.2864 23.2723 1.12171 23.501 0.86775 24.0038C0.54786 24.6371 0.459902 24.9917 0.424252 25.7912C0.386572 26.6367 0.459958 27.183 0.719835 27.9912C0.947348 28.699 1.18483 29.1663 1.79194 30.1008C2.31588 30.9073 2.61755 31.5067 2.61755 31.7412C2.61755 31.9277 2.6534 31.928 3.46527 31.7458C5.4082 31.3098 6.98585 30.5427 7.87313 29.6027C8.42228 29.021 8.5512 28.6998 8.55537 27.9028C8.55812 27.3813 8.53967 27.272 8.39785 26.972C8.167 26.4838 7.74672 26.0778 6.82042 25.4485C5.60675 24.6238 5.08835 23.9599 4.94518 23.0469C4.8277 22.2978 4.96397 21.7693 5.6354 20.3706C6.33035 18.9229 6.50257 18.306 6.61907 16.8467C6.69432 15.9039 6.79852 15.5322 7.07105 15.2337C7.3553 14.9225 7.61117 14.8171 8.3146 14.7216C9.46143 14.5659 10.1917 14.271 10.7919 13.7212C11.3126 13.2443 11.5305 12.7848 11.5639 12.093L11.5893 11.5687L11.2984 11.2315C10.2446 10.0103 0.0652507 1.25 0.000401091 1.25C-0.0134526 1.25 0.333312 1.68201 0.770957 2.20996ZM3.2091 26.748C3.44735 26.3285 3.32075 25.7895 2.92222 25.526C2.54568 25.2772 1.9607 25.3945 1.9607 25.7188C1.9607 25.8178 2.01576 25.8897 2.13984 25.9532C2.34879 26.06 2.36395 26.1803 2.19956 26.4258C2.03308 26.6745 2.04651 26.8932 2.23748 27.0417C2.54525 27.2812 2.98093 27.1495 3.2091 26.748Z" fill="white"/>
<path fill-rule="evenodd" clip-rule="evenodd" d="M12.3133 14.9966C11.7749 15.161 11.2516 15.7281 11.0896 16.3228C10.9908 16.6855 11.0468 17.3219 11.1949 17.5184C11.434 17.8358 11.6653 17.9195 12.2915 17.9151C13.5176 17.9066 14.5834 17.384 14.7073 16.7306C14.8089 16.195 14.3408 15.4528 13.696 15.127C13.3633 14.9589 12.6557 14.8922 12.3133 14.9966ZM13.7466 16.1106C13.9356 15.8435 13.8529 15.555 13.5314 15.3598C12.919 14.9881 11.9929 15.2957 11.9929 15.8707C11.9929 16.1569 12.4759 16.4691 12.9185 16.4691C13.2131 16.4691 13.6163 16.2945 13.7466 16.1106Z" fill="white"/>
</g>
<defs>
<clipPath id="clip0">
<rect width="35" height="37.5" fill="white"/>
</clipPath>
</defs>
</svg>
