<svg width="106" height="35" viewBox="0 0 106 35" fill="none" xmlns="http://www.w3.org/2000/svg">
<path d="M45.2871 15.1172C45.2871 14.7695 45.3535 14.4434 45.4863 14.1387C45.6191 13.834 45.7988 13.5684 46.0254 13.3418C46.2559 13.1113 46.5234 12.9297 46.8281 12.7969C47.1328 12.6641 47.459 12.5977 47.8066 12.5977H51.6621V14.2793H47.8066C47.6895 14.2793 47.5801 14.3008 47.4785 14.3438C47.377 14.3867 47.2871 14.4473 47.209 14.5254C47.1348 14.5996 47.0762 14.6875 47.0332 14.7891C46.9902 14.8906 46.9688 15 46.9688 15.1172C46.9688 15.2344 46.9902 15.3457 47.0332 15.4512C47.0762 15.5527 47.1348 15.6426 47.209 15.7207C47.2871 15.7949 47.377 15.8535 47.4785 15.8965C47.5801 15.9395 47.6895 15.9609 47.8066 15.9609H49.4883C49.8359 15.9609 50.1621 16.0273 50.4668 16.1602C50.7754 16.2891 51.043 16.4688 51.2695 16.6992C51.5 16.9258 51.6797 17.1934 51.8086 17.502C51.9414 17.8066 52.0078 18.1328 52.0078 18.4805C52.0078 18.8281 51.9414 19.1543 51.8086 19.459C51.6797 19.7637 51.5 20.0312 51.2695 20.2617C51.043 20.4883 50.7754 20.668 50.4668 20.8008C50.1621 20.9336 49.8359 21 49.4883 21H45.7559V19.3184H49.4883C49.6055 19.3184 49.7148 19.2969 49.8164 19.2539C49.918 19.2109 50.0059 19.1523 50.0801 19.0781C50.1582 19 50.2188 18.9102 50.2617 18.8086C50.3047 18.707 50.3262 18.5977 50.3262 18.4805C50.3262 18.3633 50.3047 18.2539 50.2617 18.1523C50.2188 18.0508 50.1582 17.9629 50.0801 17.8887C50.0059 17.8105 49.918 17.75 49.8164 17.707C49.7148 17.6641 49.6055 17.6426 49.4883 17.6426H47.8066C47.459 17.6426 47.1328 17.5762 46.8281 17.4434C46.5234 17.3105 46.2559 17.1309 46.0254 16.9043C45.7988 16.6738 45.6191 16.4062 45.4863 16.1016C45.3535 15.793 45.2871 15.4648 45.2871 15.1172ZM57.498 20.2676C57.3691 20.3848 57.2305 20.4961 57.082 20.6016C56.9375 20.7031 56.7852 20.793 56.625 20.8711C56.4648 20.9453 56.2988 21.0039 56.127 21.0469C55.959 21.0938 55.7871 21.1172 55.6113 21.1172C55.2246 21.1172 54.8613 21.0488 54.5215 20.9121C54.1816 20.7754 53.8828 20.582 53.625 20.332C53.3711 20.0781 53.1699 19.7715 53.0215 19.4121C52.877 19.0488 52.8047 18.6426 52.8047 18.1934V14.7246H54.3984V18.1934C54.3984 18.4043 54.4297 18.5938 54.4922 18.7617C54.5586 18.9258 54.6465 19.0645 54.7559 19.1777C54.8652 19.291 54.9922 19.377 55.1367 19.4355C55.2852 19.4941 55.4434 19.5234 55.6113 19.5234C55.7754 19.5234 55.9297 19.4863 56.0742 19.4121C56.2227 19.334 56.3516 19.2324 56.4609 19.1074C56.5703 18.9824 56.6562 18.8418 56.7188 18.6855C56.7812 18.5254 56.8125 18.3613 56.8125 18.1934V14.7246H58.4121V21H58.0254L57.498 20.2676ZM63.082 21H59.4258V19.4062H63.082C63.1914 19.4062 63.2852 19.3672 63.3633 19.2891C63.4414 19.2109 63.4805 19.1172 63.4805 19.0078C63.4805 18.8945 63.4414 18.8203 63.3633 18.7852C63.2852 18.75 63.1914 18.7324 63.082 18.7324H61.418C61.1406 18.7324 60.8809 18.6797 60.6387 18.5742C60.3965 18.4688 60.1855 18.3262 60.0059 18.1465C59.8262 17.9629 59.6836 17.75 59.5781 17.5078C59.4766 17.2656 59.4258 17.0059 59.4258 16.7285C59.4258 16.4512 59.4766 16.1914 59.5781 15.9492C59.6836 15.707 59.8262 15.4961 60.0059 15.3164C60.1855 15.1367 60.3965 14.9961 60.6387 14.8945C60.8809 14.7891 61.1406 14.7363 61.418 14.7363H64.6582V16.3301H61.418C61.3086 16.3301 61.2148 16.3691 61.1367 16.4473C61.0586 16.5254 61.0195 16.6191 61.0195 16.7285C61.0195 16.8418 61.0586 16.9395 61.1367 17.0215C61.2148 17.0996 61.3086 17.1387 61.418 17.1387H63.082C63.3555 17.1387 63.6133 17.1855 63.8555 17.2793C64.0977 17.3691 64.3086 17.4961 64.4883 17.6602C64.668 17.8242 64.8105 18.0215 64.916 18.252C65.0215 18.4824 65.0742 18.7344 65.0742 19.0078C65.0742 19.2852 65.0215 19.5449 64.916 19.7871C64.8105 20.0254 64.668 20.2363 64.4883 20.4199C64.3086 20.5996 64.0977 20.7422 63.8555 20.8477C63.6133 20.9492 63.3555 21 63.082 21ZM67.5293 21H65.9297V12.2285H67.5293V15C67.7207 14.8555 67.918 14.7539 68.1211 14.6953C68.3242 14.6328 68.5312 14.6016 68.7422 14.6016C69.1289 14.6016 69.4922 14.6758 69.832 14.8242C70.1719 14.9688 70.4668 15.1699 70.7168 15.4277C70.9707 15.6816 71.1699 15.9805 71.3145 16.3242C71.4629 16.6641 71.5371 17.0273 71.5371 17.4141V21H69.9258V17.4141H69.9375C69.9375 17.25 69.9062 17.0957 69.8438 16.9512C69.7812 16.8027 69.6953 16.6738 69.5859 16.5645C69.4766 16.4551 69.3496 16.3691 69.2051 16.3066C69.0605 16.2441 68.9062 16.2129 68.7422 16.2129C68.5742 16.2129 68.416 16.2441 68.2676 16.3066C68.1191 16.3691 67.9902 16.4551 67.8809 16.5645C67.7715 16.6738 67.6855 16.8027 67.623 16.9512C67.5605 17.0957 67.5293 17.25 67.5293 17.4141V21ZM74.5664 13.0195C74.5664 13.168 74.5371 13.3066 74.4785 13.4355C74.4238 13.5645 74.3477 13.6777 74.25 13.7754C74.1523 13.8691 74.0371 13.9453 73.9043 14.0039C73.7754 14.0586 73.6367 14.0859 73.4883 14.0859C73.3398 14.0859 73.1992 14.0586 73.0664 14.0039C72.9375 13.9453 72.8242 13.8691 72.7266 13.7754C72.6328 13.6777 72.5566 13.5645 72.498 13.4355C72.4434 13.3066 72.416 13.168 72.416 13.0195C72.416 12.875 72.4434 12.7383 72.498 12.6094C72.5566 12.4766 72.6328 12.3633 72.7266 12.2695C72.8242 12.1719 72.9375 12.0957 73.0664 12.041C73.1992 11.9824 73.3398 11.9531 73.4883 11.9531C73.6367 11.9531 73.7754 11.9824 73.9043 12.041C74.0371 12.0957 74.1523 12.1719 74.25 12.2695C74.3477 12.3633 74.4238 12.4766 74.4785 12.6094C74.5371 12.7383 74.5664 12.875 74.5664 13.0195ZM74.291 21H72.6797V14.7246H74.291V21ZM75.1934 15.1172C75.1934 14.7695 75.2598 14.4434 75.3926 14.1387C75.5254 13.834 75.7051 13.5684 75.9316 13.3418C76.1621 13.1113 76.4297 12.9297 76.7344 12.7969C77.0391 12.6641 77.3652 12.5977 77.7129 12.5977H81.5684V14.2793H77.7129C77.5957 14.2793 77.4863 14.3008 77.3848 14.3438C77.2832 14.3867 77.1934 14.4473 77.1152 14.5254C77.041 14.5996 76.9824 14.6875 76.9395 14.7891C76.8965 14.8906 76.875 15 76.875 15.1172C76.875 15.2344 76.8965 15.3457 76.9395 15.4512C76.9824 15.5527 77.041 15.6426 77.1152 15.7207C77.1934 15.7949 77.2832 15.8535 77.3848 15.8965C77.4863 15.9395 77.5957 15.9609 77.7129 15.9609H79.3945C79.7422 15.9609 80.0684 16.0273 80.373 16.1602C80.6816 16.2891 80.9492 16.4688 81.1758 16.6992C81.4062 16.9258 81.5859 17.1934 81.7148 17.502C81.8477 17.8066 81.9141 18.1328 81.9141 18.4805C81.9141 18.8281 81.8477 19.1543 81.7148 19.459C81.5859 19.7637 81.4062 20.0312 81.1758 20.2617C80.9492 20.4883 80.6816 20.668 80.373 20.8008C80.0684 20.9336 79.7422 21 79.3945 21H75.6621V19.3184H79.3945C79.5117 19.3184 79.6211 19.2969 79.7227 19.2539C79.8242 19.2109 79.9121 19.1523 79.9863 19.0781C80.0645 19 80.125 18.9102 80.168 18.8086C80.2109 18.707 80.2324 18.5977 80.2324 18.4805C80.2324 18.3633 80.2109 18.2539 80.168 18.1523C80.125 18.0508 80.0645 17.9629 79.9863 17.8887C79.9121 17.8105 79.8242 17.75 79.7227 17.707C79.6211 17.6641 79.5117 17.6426 79.3945 17.6426H77.7129C77.3652 17.6426 77.0391 17.5762 76.7344 17.4434C76.4297 17.3105 76.1621 17.1309 75.9316 16.9043C75.7051 16.6738 75.5254 16.4062 75.3926 16.1016C75.2598 15.793 75.1934 15.4648 75.1934 15.1172ZM90.7148 18.7324C90.7148 19.0605 90.6523 19.3711 90.5273 19.6641C90.4023 19.9531 90.2305 20.2051 90.0117 20.4199C89.7969 20.6348 89.543 20.8047 89.25 20.9297C88.9609 21.0547 88.6504 21.1172 88.3184 21.1172C88.0215 21.1172 87.7363 21.0664 87.4629 20.9648C87.1895 20.8594 86.9414 20.707 86.7188 20.5078C86.5 20.707 86.2539 20.8594 85.9805 20.9648C85.7109 21.0664 85.4258 21.1172 85.125 21.1172C84.793 21.1172 84.4824 21.0547 84.1934 20.9297C83.9043 20.8047 83.6504 20.6348 83.4316 20.4199C83.2168 20.2051 83.0469 19.9531 82.9219 19.6641C82.7969 19.3711 82.7344 19.0605 82.7344 18.7324V14.7363H84.334V18.7324C84.334 18.8418 84.3535 18.9453 84.3926 19.043C84.4355 19.1367 84.4922 19.2207 84.5625 19.2949C84.6367 19.3652 84.7207 19.4219 84.8145 19.4648C84.9121 19.5039 85.0156 19.5234 85.125 19.5234C85.2344 19.5234 85.3379 19.5039 85.4355 19.4648C85.5332 19.4219 85.6191 19.3652 85.6934 19.2949C85.7676 19.2207 85.8242 19.1367 85.8633 19.043C85.9062 18.9453 85.9277 18.8418 85.9277 18.7324V14.7363H87.5215V18.7324C87.5215 18.8418 87.543 18.9453 87.5859 19.043C87.6289 19.1367 87.6855 19.2207 87.7559 19.2949C87.8301 19.3652 87.9141 19.4219 88.0078 19.4648C88.1055 19.5039 88.209 19.5234 88.3184 19.5234C88.4277 19.5234 88.5312 19.5039 88.6289 19.4648C88.7266 19.4219 88.8105 19.3652 88.8809 19.2949C88.9551 19.2207 89.0137 19.1367 89.0566 19.043C89.0996 18.9453 89.1211 18.8418 89.1211 18.7324V14.7363H90.7148V18.7324ZM97.9512 21H97.5645L96.9434 20.1387C96.791 20.2754 96.6289 20.4043 96.457 20.5254C96.2891 20.6426 96.1113 20.7461 95.9238 20.8359C95.7363 20.9219 95.543 20.9902 95.3438 21.041C95.1484 21.0918 94.9492 21.1172 94.7461 21.1172C94.3047 21.1172 93.8887 21.043 93.498 20.8945C93.1113 20.7461 92.7715 20.5312 92.4785 20.25C92.1895 19.9648 91.9609 19.6172 91.793 19.207C91.625 18.7969 91.541 18.3301 91.541 17.8066C91.541 17.3184 91.625 16.8711 91.793 16.4648C91.9609 16.0547 92.1895 15.7031 92.4785 15.4102C92.7715 15.1172 93.1113 14.8906 93.498 14.7305C93.8887 14.5664 94.3047 14.4844 94.7461 14.4844C94.9492 14.4844 95.1504 14.5098 95.3496 14.5605C95.5488 14.6113 95.7422 14.6816 95.9297 14.7715C96.1172 14.8613 96.2949 14.9668 96.4629 15.0879C96.6348 15.209 96.7949 15.3398 96.9434 15.4805L97.5645 14.7363H97.9512V21ZM96.3398 17.8066C96.3398 17.5879 96.2969 17.377 96.2109 17.1738C96.1289 16.9668 96.0156 16.7852 95.8711 16.6289C95.7266 16.4688 95.5566 16.3418 95.3613 16.248C95.1699 16.1504 94.9648 16.1016 94.7461 16.1016C94.5273 16.1016 94.3203 16.1387 94.125 16.2129C93.9336 16.2871 93.7656 16.3965 93.6211 16.541C93.4805 16.6855 93.3691 16.8652 93.2871 17.0801C93.2051 17.291 93.1641 17.5332 93.1641 17.8066C93.1641 18.0801 93.2051 18.3242 93.2871 18.5391C93.3691 18.75 93.4805 18.9277 93.6211 19.0723C93.7656 19.2168 93.9336 19.3262 94.125 19.4004C94.3203 19.4746 94.5273 19.5117 94.7461 19.5117C94.9648 19.5117 95.1699 19.4648 95.3613 19.3711C95.5566 19.2734 95.7266 19.1465 95.8711 18.9902C96.0156 18.8301 96.1289 18.6484 96.2109 18.4453C96.2969 18.2383 96.3398 18.0254 96.3398 17.8066ZM100.787 23.3906H99.1758V14.7246H99.5625L100.201 15.4805C100.346 15.3438 100.504 15.2148 100.676 15.0938C100.848 14.9727 101.025 14.8691 101.209 14.7832C101.396 14.6934 101.59 14.623 101.789 14.5723C101.988 14.5215 102.189 14.4961 102.393 14.4961C102.834 14.4961 103.248 14.5762 103.635 14.7363C104.025 14.8926 104.365 15.1152 104.654 15.4043C104.947 15.6934 105.178 16.043 105.346 16.4531C105.514 16.8594 105.598 17.3105 105.598 17.8066C105.598 18.3223 105.514 18.7871 105.346 19.2012C105.178 19.6113 104.947 19.9609 104.654 20.25C104.365 20.5352 104.025 20.7539 103.635 20.9062C103.248 21.0586 102.834 21.1348 102.393 21.1348C102.252 21.1348 102.111 21.1191 101.971 21.0879C101.834 21.0566 101.697 21.0156 101.561 20.9648C101.428 20.9102 101.295 20.8496 101.162 20.7832C101.033 20.7168 100.908 20.6484 100.787 20.5781V23.3906ZM103.992 17.8066C103.992 17.541 103.949 17.3027 103.863 17.0918C103.781 16.8809 103.668 16.7031 103.523 16.5586C103.379 16.4102 103.209 16.2969 103.014 16.2188C102.818 16.1406 102.611 16.1016 102.393 16.1016C102.174 16.1016 101.967 16.1406 101.771 16.2188C101.58 16.2969 101.412 16.4102 101.268 16.5586C101.123 16.7031 101.008 16.8809 100.922 17.0918C100.84 17.3027 100.799 17.541 100.799 17.8066C100.799 18.0605 100.84 18.293 100.922 18.5039C101.008 18.7148 101.123 18.8945 101.268 19.043C101.412 19.1914 101.58 19.3066 101.771 19.3887C101.967 19.4707 102.174 19.5117 102.393 19.5117C102.611 19.5117 102.818 19.4707 103.014 19.3887C103.209 19.3066 103.379 19.1914 103.523 19.043C103.668 18.8945 103.781 18.7148 103.863 18.5039C103.949 18.293 103.992 18.0605 103.992 17.8066Z" fill="white"/>
<g clip-path="url(#clip0)">
<path d="M7.29232 3.35425L34.4173 21.8751L27.709 31.7917L0.583984 13.1251L7.29232 3.35425Z" fill="url(#paint0_linear)"/>
<path d="M34.417 21.875C32.0837 25.2292 24.2087 23.9167 16.7712 18.6667C9.18786 13.5625 5.10455 6.70836 7.29203 3.3542C9.62536 3.6907e-05 17.5004 1.31253 24.9379 6.56253C32.5212 11.5209 36.6045 18.5209 34.417 21.875Z" fill="url(#paint1_linear)"/>
<path d="M27.7086 31.6459C25.3753 35 17.5003 33.6875 10.0628 28.4375C2.62523 23.1875 -1.60394 16.4792 0.729397 12.9792C3.06273 9.62504 10.9378 10.9375 18.3753 16.1875C25.8128 21.4375 29.8961 28.2917 27.7086 31.6459Z" fill="url(#paint2_linear)"/>
<path d="M34.417 21.875L27.7087 31.7917C25.3753 35.1458 17.5003 33.6875 10.0628 28.5833C8.60449 27.5625 7.29199 26.5417 5.97949 25.375C7.00033 25.2292 8.31283 24.6458 9.62533 23.1875C11.9587 20.7083 13.1253 20.125 14.1462 20.2708C15.167 20.2708 16.3337 21.2917 18.2295 23.7708C20.1253 26.25 22.7503 26.9792 24.3545 25.6667C24.5003 25.5208 24.6462 25.5208 24.792 25.375C26.1045 24.3542 26.542 23.9167 29.0212 19.25C29.6045 18.0833 31.6462 16.1875 34.417 17.0625C35.1462 18.9583 35.1462 20.5625 34.417 21.875Z" fill="#0E0F23"/>
<path fill-rule="evenodd" clip-rule="evenodd" d="M33.3958 21.2917C31.3541 24.2084 24.2083 22.75 17.3541 17.9375C10.3541 13.125 6.2708 7.00004 8.31247 4.08338C10.3541 1.16671 17.5 2.62504 24.3541 7.43754C31.2083 12.25 35.2916 18.375 33.3958 21.2917ZM26.9791 16.9167C25.9583 18.375 22.4583 17.6459 18.9583 15.3125C15.6041 12.9792 13.5625 9.9167 14.5833 8.45837C15.6041 7.00004 19.1041 7.7292 22.6041 10.0625C25.9583 12.3959 28 15.4584 26.9791 16.9167Z" fill="white"/>
<path d="M6.70833 6.70831C6.70833 6.56248 6.5625 6.41665 6.41667 6.56248C6.27083 6.70831 6.125 6.70831 6.125 6.85415C6.27083 7.29165 6.41667 7.58331 6.41667 7.87498C6.41667 8.02081 6.5625 8.16665 6.70833 8.02081C6.85417 8.02081 7 7.87498 6.85417 7.72915C6.85417 7.43748 6.85417 7.14581 6.70833 6.70831ZM7.4375 9.04165C7.4375 8.89581 7.29167 8.74998 7.14583 8.89581C7 9.04165 7 9.04165 7 9.18748C8.60417 12.8333 11.9583 16.7708 16.3333 19.6875C16.4792 19.8333 16.625 19.6875 16.7708 19.6875C16.9167 19.5416 16.7708 19.3958 16.7708 19.25C12.25 16.3333 9.04167 12.5416 7.4375 9.04165ZM25.0833 23.3333C24.9375 23.3333 24.7917 23.3333 24.7917 23.4791C24.7917 23.625 24.7917 23.7708 24.9375 23.7708L26.3958 24.2083C26.5417 24.2083 26.6875 24.2083 26.6875 24.0625C26.6875 23.9166 26.6875 23.7708 26.5417 23.7708L25.0833 23.3333ZM27.7083 23.9166C27.5625 23.9166 27.4167 24.0625 27.4167 24.2083C27.4167 24.3541 27.5625 24.5 27.7083 24.5C28.875 24.6458 30.1875 24.7916 31.2083 24.6458C31.3542 24.6458 31.5 24.5 31.5 24.3541C31.5 24.2083 31.3542 24.0625 31.2083 24.0625C30.0417 24.2083 28.875 24.0625 27.7083 23.9166Z" fill="white"/>
</g>
<defs>
<linearGradient id="paint0_linear" x1="12.6065" y1="0.720498" x2="17.9863" y2="19.1917" gradientUnits="userSpaceOnUse">
<stop stop-color="#03B8FF"/>
<stop offset="1" stop-color="#FA52A0"/>
</linearGradient>
<linearGradient id="paint1_linear" x1="17.0366" y1="-0.568713" x2="22.4164" y2="17.9025" gradientUnits="userSpaceOnUse">
<stop stop-color="#03B8FF"/>
<stop offset="1" stop-color="#FA52A0"/>
</linearGradient>
<linearGradient id="paint2_linear" x1="8.19025" y1="2.00672" x2="13.57" y2="20.478" gradientUnits="userSpaceOnUse">
<stop stop-color="#03B8FF"/>
<stop offset="1" stop-color="#FA52A0"/>
</linearGradient>
<clipPath id="clip0">
<rect width="35" height="35" fill="white"/>
</clipPath>
</defs>
</svg>
