<svg width="404" height="507" viewBox="0 0 404 507" fill="none" xmlns="http://www.w3.org/2000/svg">
<mask id="mask0" mask-type="alpha" maskUnits="userSpaceOnUse" x="0" y="0" width="404" height="507">
<rect width="404" height="507" rx="16" fill="#C4C4C4"/>
</mask>
<g mask="url(#mask0)">
<path d="M278.009 64.7797C162.468 64.7797 68.4746 158.779 68.4746 274.307C68.4746 389.845 162.468 483.844 278.009 483.844C393.548 483.844 487.539 389.845 487.539 274.307C487.539 158.776 393.548 64.7797 278.009 64.7797ZM299.947 206.386C268.453 221.032 244.173 248.654 234.038 282.348C225.805 278.489 218.18 273.556 211.31 267.741C220.727 234.813 242.373 207.393 270.265 188.815C278.993 183.001 289.982 177.483 297.644 175.335C312.365 170.086 328.163 167.075 344.674 167.075C345.381 167.075 346.089 167.102 346.803 167.107C356.588 167.102 367.155 168.114 378.064 170.736C379.139 170.999 380.212 171.272 381.294 171.565C381.442 171.603 381.6 171.64 381.757 171.683C384.202 172.35 386.646 173.103 389.116 173.95C389.499 174.075 389.901 174.223 390.286 174.36C391.097 174.648 391.909 174.94 392.728 175.246C394.867 176.054 397.006 176.926 399.151 177.882C399.142 177.67 399.117 177.462 399.098 177.254C399.117 177.268 399.135 177.273 399.151 177.273C397.683 158.614 389.796 140.593 384.811 130.852C380.99 123.87 376.485 117.301 371.416 111.228C427.829 143.667 465.923 204.529 465.985 274.129C448.406 227.943 403.691 195.025 351.402 195.025C341.287 195.025 331.461 196.269 322.054 198.59C314.962 200.334 307.556 203.047 299.947 206.386ZM410.547 234.117C404.359 259.13 391.496 281.524 373.892 299.256C370.314 267.898 357.667 239.255 338.651 216.023C342.832 215.502 347.091 215.224 351.4 215.224C373.429 215.222 393.824 222.235 410.547 234.117ZM277.514 246.869C288.704 258.616 297.135 273.004 301.709 289.017C293.89 290.946 285.737 291.989 277.336 291.989C268.992 291.989 260.889 290.964 253.122 289.074C257.778 273.031 266.271 258.618 277.514 246.869ZM195.514 251.048C182.623 233.93 174.973 212.661 174.973 189.629C174.973 187.327 175.083 185.049 175.226 182.782C187.654 179.156 200.779 177.17 214.364 177.17C225.433 177.17 236.19 178.498 246.524 180.936C223.612 198.985 205.778 223.198 195.514 251.048ZM277.336 87.2792C319.39 87.2792 355.565 112.785 371.275 149.136C362.634 147.661 353.742 146.872 344.674 146.872C317.078 146.872 291.114 153.954 268.469 166.381C251.559 160.301 233.346 156.971 214.364 156.971C202.249 156.971 190.45 158.363 179.097 160.933C191.543 118.42 230.856 87.2792 277.336 87.2792ZM181.957 112.782C164.97 133.823 154.77 160.554 154.77 189.629C154.77 257.215 209.747 312.192 277.336 312.192C286.951 312.192 296.288 311.049 305.269 308.935C305.468 311.571 305.609 314.219 305.609 316.898C305.609 324.579 304.728 332.065 303.103 339.263C297.414 339.784 291.924 340.087 286.609 340.215C282.549 340.58 278.45 340.813 274.296 340.813C253.424 340.813 233.618 336.221 215.797 328.011C196.37 319.646 181.551 307.723 170.246 294.511C151.05 273.303 138.234 246.234 134.845 216.342C132.439 218.093 130.187 219.878 128.007 221.674C111.12 235.163 97.8802 253.031 90.0336 273.545C90.3097 205.282 127.16 145.491 181.957 112.782ZM296.254 359.446C286.714 380.056 270.493 396.934 250.361 407.326C233.294 391.461 220.186 371.401 212.789 348.74C231.744 356.637 252.52 361.014 274.3 361.014C281.752 361.014 289.072 360.448 296.254 359.446ZM102.244 316.901C102.244 293.639 110.116 272.173 123.324 255.028C135.564 288.768 158.796 317.282 188.697 336.203C194.597 366.515 209.162 393.75 229.676 415.277C221.451 417.436 212.823 418.589 203.931 418.589C147.863 418.587 102.244 372.974 102.244 316.901ZM278.009 462.285C243.877 462.285 211.842 453.139 184.221 437.177C190.641 438.224 197.217 438.793 203.931 438.793C271.137 438.793 325.815 384.112 325.815 316.901C325.815 284.74 313.258 255.492 292.835 233.69C300.088 228.605 308.029 224.445 316.485 221.363C332.858 238.737 344.859 260.257 350.713 284.183L350.845 284.051C350.957 284.507 351.062 284.989 351.176 285.486C351.414 286.762 351.656 288.043 351.866 289.305C352.966 294.657 353.723 300.123 354.187 305.674C354.833 311.633 355.191 318.049 355.043 324.759C355.077 324.759 355.104 324.768 355.129 324.768C355.077 327.386 354.928 330.052 354.712 332.754C354.677 332.763 354.65 332.772 354.616 332.772C353.518 345.98 350.252 359.91 343.428 373.245C335.784 391.267 325.295 405.059 315.807 414.93C315.528 415.213 315.257 415.503 314.985 415.777C314.033 416.752 313.109 417.681 312.185 418.566C311.931 418.804 311.687 419.043 311.443 419.278C310.64 420.047 309.836 420.789 309.06 421.492C308.885 421.654 308.711 421.825 308.544 421.974C307.62 422.795 306.73 423.578 305.865 424.318C305.682 424.471 305.507 424.619 305.333 424.765C303.475 426.331 301.748 427.709 300.203 428.887L300.324 428.94C300.324 428.94 308.467 433.338 322.029 436.647C322.063 436.611 322.106 436.572 322.14 436.547C331.523 438.859 341.314 440.137 351.402 440.137C357.293 440.137 363.079 439.696 368.743 438.884C341.828 453.79 310.891 462.285 278.009 462.285ZM351.402 419.931C347.1 419.931 342.841 419.648 338.669 419.123C359.762 393.36 373.027 360.964 374.773 325.574C399.121 305.982 417.633 279.447 427.329 249.01C443.743 267.173 453.763 291.22 453.763 317.576C453.765 374.017 407.849 419.931 351.402 419.931Z" fill="url(#paint0_linear)" fill-opacity="0.1"/>
</g>
<defs>
<linearGradient id="paint0_linear" x1="157.333" y1="103.105" x2="400.394" y2="447.936" gradientUnits="userSpaceOnUse">
<stop stop-color="#8DC33F"/>
<stop offset="1" stop-color="#00A7A7"/>
</linearGradient>
</defs>
</svg>
