<svg width="60" height="27" viewBox="0 0 60 27" fill="none" xmlns="http://www.w3.org/2000/svg">
<rect width="60" height="27" rx="8" fill="url(#paint0_linear)"/>
<path d="M16.9999 5C21.4113 5 25 8.58891 25 12.9998C25 17.4111 21.4113 21 16.9999 21C12.5886 21 9 17.4111 9 12.9998C9 8.58882 12.5886 5 16.9999 5ZM16.1623 10.4066C17.3648 10.9658 18.2918 12.0204 18.6788 13.3068C18.9931 13.1595 19.2842 12.9712 19.5465 12.7491C19.187 11.4919 18.3605 10.445 17.2956 9.73569C16.9624 9.51374 16.5428 9.30303 16.2502 9.22103C15.6882 9.02061 15.085 8.90567 14.4546 8.90567C14.4276 8.90567 14.4006 8.90672 14.3733 8.90689C13.9998 8.90672 13.5963 8.94532 13.1798 9.04544C13.1387 9.05547 13.0978 9.06592 13.0565 9.07708C13.0508 9.07856 13.0448 9.07995 13.0388 9.08161C12.9454 9.10705 12.8521 9.13581 12.7578 9.16814C12.7432 9.17293 12.7279 9.1786 12.7131 9.18383C12.6822 9.19481 12.6512 9.20596 12.6199 9.21764C12.5382 9.24848 12.4566 9.28177 12.3747 9.31828C12.375 9.31018 12.376 9.30225 12.3767 9.29432C12.376 9.29484 12.3753 9.29502 12.3747 9.29502C12.4307 8.58264 12.7319 7.89457 12.9222 7.52265C13.0681 7.25609 13.2401 7.00529 13.4336 6.77341C11.2798 8.01195 9.8253 10.3357 9.82295 12.993C10.4941 11.2296 12.2014 9.9728 14.1977 9.9728C14.5839 9.9728 14.9591 10.0203 15.3183 10.1089C15.589 10.1755 15.8718 10.2791 16.1623 10.4066ZM11.9396 11.4654C12.1758 12.4203 12.6669 13.2754 13.3391 13.9524C13.4757 12.7551 13.9585 11.6615 14.6846 10.7745C14.525 10.7546 14.3624 10.744 14.1978 10.744C13.3568 10.7439 12.5781 11.0117 11.9396 11.4654ZM17.0188 11.9522C16.5916 12.4007 16.2697 12.9501 16.095 13.5615C16.3936 13.6351 16.7049 13.6749 17.0256 13.6749C17.3442 13.6749 17.6536 13.6358 17.9501 13.5636C17.7723 12.9511 17.4481 12.4008 17.0188 11.9522ZM20.1496 12.1118C20.6418 11.4582 20.9339 10.6461 20.9339 9.7668C20.9339 9.67887 20.9297 9.59191 20.9242 9.50538C20.4497 9.36691 19.9486 9.29109 19.4299 9.29109C19.0073 9.29109 18.5966 9.34181 18.202 9.43488C19.0768 10.124 19.7577 11.0485 20.1496 12.1118ZM17.0256 5.85904C15.42 5.85904 14.0388 6.83284 13.439 8.22074C13.7689 8.16445 14.1084 8.1343 14.4546 8.1343C15.5082 8.1343 16.4996 8.4047 17.3642 8.87918C18.0098 8.64704 18.7052 8.5199 19.4299 8.5199C19.8924 8.5199 20.343 8.57305 20.7764 8.67117C20.3012 7.04799 18.8002 5.85904 17.0256 5.85904ZM20.6672 6.83276C21.3158 7.63611 21.7052 8.65671 21.7052 9.7668C21.7052 12.3472 19.6062 14.4463 17.0256 14.4463C16.6585 14.4463 16.302 14.4026 15.9591 14.3219C15.9515 14.4226 15.9461 14.5237 15.9461 14.626C15.9461 14.9192 15.9798 15.205 16.0418 15.4799C16.259 15.4997 16.4686 15.5113 16.6716 15.5162C16.8266 15.5301 16.9831 15.539 17.1417 15.539C17.9386 15.539 18.6948 15.3637 19.3752 15.0503C20.1169 14.7309 20.6827 14.2757 21.1143 13.7712C21.8473 12.9615 22.3366 11.928 22.466 10.7867C22.5578 10.8535 22.6438 10.9217 22.727 10.9903C23.3718 11.5053 23.8773 12.1875 24.1769 12.9707C24.1663 10.3644 22.7594 8.08158 20.6672 6.83276ZM16.3033 16.2505C16.6676 17.0373 17.2869 17.6817 18.0555 18.0785C18.7072 17.4728 19.2076 16.7069 19.49 15.8417C18.7663 16.1432 17.9731 16.3103 17.1415 16.3103C16.857 16.3103 16.5775 16.2887 16.3033 16.2505ZM23.7107 14.6261C23.7107 13.7379 23.4101 12.9183 22.9058 12.2637C22.4385 13.552 21.5515 14.6406 20.4099 15.363C20.1846 16.5203 19.6285 17.5602 18.8453 18.3821C19.1593 18.4645 19.4887 18.5085 19.8282 18.5085C21.9689 18.5085 23.7107 16.7669 23.7107 14.6261ZM16.9999 20.1769C18.3031 20.1769 19.5262 19.8277 20.5808 19.2182C20.3356 19.2582 20.0846 19.2799 19.8282 19.2799C17.2623 19.2799 15.1747 17.1922 15.1747 14.6261C15.1747 13.3981 15.6541 12.2814 16.4338 11.4491C16.1569 11.2549 15.8538 11.0961 15.5309 10.9784C14.9058 11.6417 14.4476 12.4634 14.2241 13.3769L14.219 13.3718C14.2147 13.3893 14.2107 13.4076 14.2064 13.4266C14.1973 13.4754 14.1881 13.5242 14.1801 13.5724C14.1381 13.7768 14.1091 13.9855 14.0914 14.1974C14.0668 14.4249 14.0531 14.6699 14.0588 14.9261C14.0574 14.9261 14.0564 14.9264 14.0554 14.9264C14.0574 15.0264 14.0631 15.1282 14.0714 15.2313C14.0727 15.2317 14.0737 15.232 14.075 15.232C14.117 15.7363 14.2417 16.2681 14.5022 16.7773C14.794 17.4654 15.1945 17.992 15.5568 18.3689C15.5674 18.3797 15.5778 18.3907 15.5882 18.4012C15.6245 18.4384 15.6598 18.4739 15.6951 18.5077C15.7047 18.5167 15.7141 18.5259 15.7234 18.5349C15.7541 18.5642 15.7847 18.5925 15.8144 18.6194C15.8211 18.6256 15.8277 18.6321 15.8341 18.6378C15.8694 18.6691 15.9033 18.699 15.9364 18.7273C15.9433 18.7331 15.95 18.7388 15.9567 18.7443C16.0276 18.8041 16.0936 18.8568 16.1526 18.9017L16.1479 18.9037C16.1479 18.9037 15.837 19.0717 15.3192 19.198C15.3179 19.1966 15.3163 19.1951 15.315 19.1942C14.9567 19.2824 14.5829 19.3312 14.1977 19.3312C13.9728 19.3312 13.7519 19.3144 13.5357 19.2834C14.5633 19.8525 15.7445 20.1769 16.9999 20.1769ZM14.1977 18.5598C14.362 18.5598 14.5246 18.549 14.6839 18.5289C13.8785 17.5453 13.3721 16.3084 13.3054 14.9572C12.3758 14.2092 11.669 13.1961 11.2988 12.034C10.6721 12.7274 10.2896 13.6455 10.2896 14.6518C10.2895 16.8068 12.0426 18.5598 14.1977 18.5598Z" fill="white"/>
<g clip-path="url(#clip0)">
<path d="M49.8171 9.94403L44.1579 15.5848L38.4988 9.94403L37.8422 10.6028L44.1579 16.898L50.4737 10.6028L49.8171 9.94403Z" fill="white"/>
</g>
<defs>
<linearGradient id="paint0_linear" x1="12.7222" y1="2.46923" x2="22.3064" y2="32.6849" gradientUnits="userSpaceOnUse">
<stop stop-color="#8DC33F"/>
<stop offset="1" stop-color="#00A7A7"/>
</linearGradient>
<clipPath id="clip0">
<rect width="12.6316" height="12.6316" fill="white" transform="translate(37.8422 7.10522)"/>
</clipPath>
</defs>
</svg>
