<svg width="16" height="16" viewBox="0 0 16 16" fill="none" xmlns="http://www.w3.org/2000/svg">
<path d="M7.99991 0C12.4113 0 16 3.58891 16 7.99983C16 12.4111 12.4113 16 7.99991 16C3.58861 16 0 12.4111 0 7.99983C0 3.58882 3.58861 0 7.99991 0ZM7.16232 5.40659C8.36477 5.96577 9.29177 7.02036 9.67876 8.30682C9.99307 8.15947 10.2842 7.97116 10.5465 7.74912C10.187 6.49193 9.36052 5.44502 8.29558 4.73569C7.96235 4.51374 7.54278 4.30303 7.25025 4.22103C6.68819 4.02061 6.085 3.90567 5.45463 3.90567C5.42762 3.90567 5.40061 3.90672 5.37333 3.90689C4.99976 3.90672 4.5963 3.94532 4.17977 4.04544C4.13873 4.05547 4.09777 4.06592 4.05647 4.07708C4.0508 4.07856 4.04479 4.07995 4.03878 4.08161C3.94545 4.10705 3.85212 4.13581 3.75784 4.16814C3.7432 4.17293 3.72786 4.1786 3.71313 4.18383C3.6822 4.19481 3.65118 4.20596 3.61989 4.21764C3.53824 4.24848 3.45659 4.28177 3.37468 4.31828C3.37503 4.31018 3.37599 4.30225 3.37669 4.29432C3.37599 4.29484 3.37529 4.29502 3.37468 4.29502C3.43071 3.58264 3.73187 2.89457 3.92218 2.52265C4.06806 2.25609 4.24007 2.00529 4.43361 1.77341C2.27976 3.01195 0.825305 5.33566 0.822952 7.99303C1.49411 6.22964 3.20136 4.9728 5.19774 4.9728C5.58395 4.9728 5.95909 5.02029 6.31828 5.10892C6.58902 5.17549 6.87179 5.2791 7.16232 5.40659ZM2.93959 6.46536C3.17583 7.42034 3.66695 8.27537 4.33906 8.95237C4.4757 7.75513 4.95854 6.66151 5.6846 5.7745C5.52495 5.75463 5.36235 5.744 5.19783 5.744C4.35675 5.74391 3.57807 6.0117 2.93959 6.46536ZM8.01882 6.95221C7.59157 7.40073 7.26968 7.95007 7.09505 8.56145C7.39359 8.63509 7.70486 8.67491 8.02562 8.67491C8.3442 8.67491 8.65355 8.63578 8.95009 8.56363C8.77232 7.95111 8.44808 7.40082 8.01882 6.95221ZM11.1496 7.11177C11.6418 6.45821 11.9339 5.64614 11.9339 4.7668C11.9339 4.67887 11.9297 4.59191 11.9242 4.50538C11.4497 4.36691 10.9486 4.29109 10.4299 4.29109C10.0073 4.29109 9.59658 4.34181 9.20201 4.43488C10.0768 5.12399 10.7577 6.04847 11.1496 7.11177ZM8.02562 0.859038C6.41997 0.859038 5.0388 1.83284 4.43901 3.22074C4.76892 3.16445 5.10842 3.1343 5.45463 3.1343C6.50825 3.1343 7.49955 3.4047 8.36416 3.87918C9.00978 3.64704 9.70516 3.5199 10.4299 3.5199C10.8924 3.5199 11.343 3.57305 11.7764 3.67117C11.3012 2.04799 9.80023 0.859038 8.02562 0.859038ZM11.6672 1.83276C12.3158 2.63611 12.7052 3.65671 12.7052 4.7668C12.7052 7.34723 10.6062 9.44628 8.02562 9.44628C7.6585 9.44628 7.30201 9.40262 6.95911 9.32193C6.95153 9.42258 6.94613 9.52366 6.94613 9.62597C6.94613 9.9192 6.97976 10.205 7.04181 10.4799C7.25905 10.4997 7.46862 10.5113 7.67157 10.5162C7.82659 10.5301 7.98309 10.539 8.14169 10.539C8.93859 10.539 9.69479 10.3637 10.3752 10.0503C11.1169 9.73089 11.6827 9.27566 12.1143 8.7712C12.8473 7.96148 13.3366 6.92799 13.466 5.7867C13.5578 5.85354 13.6438 5.92168 13.727 5.99026C14.3718 6.50527 14.8773 7.1875 15.1769 7.97072C15.1663 5.36441 13.7594 3.08158 11.6672 1.83276ZM7.30331 11.2505C7.66756 12.0373 8.28687 12.6817 9.05553 13.0785C9.70716 12.4728 10.2076 11.7069 10.49 10.8417C9.76633 11.1432 8.9731 11.3103 8.14152 11.3103C7.857 11.3103 7.57754 11.2887 7.30331 11.2505ZM14.7107 9.62606C14.7107 8.73791 14.4101 7.91835 13.9058 7.26374C13.4385 8.55195 12.5515 9.64061 11.4099 10.363C11.1846 11.5203 10.6285 12.5602 9.84528 13.3821C10.1593 13.4645 10.4887 13.5085 10.8282 13.5085C12.9689 13.5085 14.7107 11.7669 14.7107 9.62606ZM7.99991 15.1769C9.3031 15.1769 10.5262 14.8277 11.5808 14.2182C11.3356 14.2582 11.0846 14.2799 10.8282 14.2799C8.26229 14.2799 6.17467 12.1922 6.17467 9.62606C6.17467 8.39815 6.65412 7.28143 7.43385 6.44906C7.15692 6.25491 6.85376 6.09605 6.5309 5.97841C5.90576 6.64173 5.44757 7.46339 5.22406 8.37689L5.21901 8.37183C5.21474 8.38926 5.21073 8.40765 5.20637 8.42664C5.19731 8.47536 5.18807 8.52424 5.18005 8.57243C5.13805 8.77678 5.10912 8.98548 5.09143 9.19741C5.06677 9.42493 5.05309 9.66989 5.05875 9.92608C5.05745 9.92608 5.0564 9.92643 5.05544 9.92643C5.05745 10.0264 5.06311 10.1282 5.07139 10.2313C5.0727 10.2317 5.07374 10.232 5.07505 10.232C5.11696 10.7363 5.24166 11.2681 5.50221 11.7773C5.79404 12.4654 6.19454 12.992 6.55678 13.3689C6.56741 13.3797 6.57778 13.3907 6.58815 13.4012C6.62449 13.4384 6.65978 13.4739 6.69507 13.5077C6.70475 13.5167 6.71407 13.5259 6.72339 13.5349C6.75407 13.5642 6.78474 13.5925 6.81437 13.6194C6.82108 13.6256 6.8277 13.6321 6.83406 13.6378C6.86936 13.6691 6.90334 13.699 6.93637 13.7273C6.94334 13.7331 6.95005 13.7388 6.95667 13.7443C7.0276 13.8041 7.09357 13.8568 7.15256 13.9017L7.14794 13.9037C7.14794 13.9037 6.83703 14.0717 6.31924 14.198C6.31793 14.1966 6.31628 14.1951 6.31497 14.1942C5.95673 14.2824 5.5829 14.3312 5.19774 14.3312C4.97283 14.3312 4.75193 14.3144 4.53565 14.2834C5.5633 14.8525 6.74448 15.1769 7.99991 15.1769ZM5.19774 13.5598C5.362 13.5598 5.52461 13.549 5.6839 13.5289C4.87855 12.5453 4.37209 11.3084 4.30543 9.95719C3.37581 9.20917 2.66902 8.19607 2.29885 7.03395C1.67213 7.72742 1.28959 8.64554 1.28959 9.65185C1.2895 11.8068 3.04259 13.5598 5.19774 13.5598Z" fill="white"/>
</svg>
