<svg width="16" height="16" viewBox="0 0 16 16" fill="none" xmlns="http://www.w3.org/2000/svg">
<circle cx="8" cy="8" r="8" fill="url(#paint0_linear)"/>
<path d="M8.00009 3.80957C5.68936 3.80957 3.80957 5.68948 3.80957 7.99996C3.80957 10.3106 5.68936 12.1905 8.00009 12.1905C10.3108 12.1905 12.1905 10.3106 12.1905 7.99996C12.1905 5.68943 10.3108 3.80957 8.00009 3.80957ZM8.43883 6.64159C7.80898 6.9345 7.32341 7.4869 7.1207 8.16076C6.95606 8.08358 6.80356 7.98494 6.66617 7.86863C6.8545 7.21011 7.28739 6.66172 7.84522 6.29017C8.01977 6.17391 8.23955 6.06354 8.39278 6.02059C8.68719 5.9156 9.00314 5.8554 9.33333 5.8554C9.34748 5.8554 9.36163 5.85595 9.37592 5.85604C9.5716 5.85595 9.78294 5.87617 10.0011 5.92861C10.0226 5.93386 10.0441 5.93934 10.0657 5.94518C10.0687 5.94596 10.0718 5.94669 10.075 5.94756C10.1239 5.96088 10.1727 5.97595 10.2221 5.99288C10.2298 5.99539 10.2378 5.99836 10.2455 6.0011C10.2618 6.00685 10.278 6.01269 10.2944 6.01881C10.3372 6.03497 10.3799 6.0524 10.4228 6.07153C10.4227 6.06728 10.4221 6.06313 10.4218 6.05898C10.4221 6.05925 10.4225 6.05934 10.4228 6.05934C10.3935 5.68619 10.2357 5.32577 10.136 5.13096C10.0596 4.99133 9.96953 4.85996 9.86816 4.7385C10.9964 5.38726 11.7582 6.60444 11.7595 7.99639C11.4079 7.07271 10.5136 6.41437 9.4679 6.41437C9.2656 6.41437 9.0691 6.43925 8.88095 6.48567C8.73913 6.52054 8.59101 6.57481 8.43883 6.64159ZM10.6507 7.19619C10.527 7.69641 10.2697 8.14429 9.91768 8.49891C9.84611 7.87178 9.59319 7.29893 9.21288 6.83431C9.2965 6.8239 9.38167 6.81833 9.46785 6.81833C9.90842 6.81829 10.3163 6.95856 10.6507 7.19619ZM7.99019 7.45121C8.21398 7.68614 8.3826 7.97389 8.47407 8.29414C8.31769 8.33271 8.15465 8.35357 7.98663 8.35357C7.81975 8.35357 7.65771 8.33308 7.50238 8.29528C7.5955 7.97444 7.76534 7.68619 7.99019 7.45121ZM6.35026 7.53478C6.09245 7.19244 5.93945 6.76707 5.93945 6.30647C5.93945 6.26041 5.94164 6.21486 5.94452 6.16953C6.19306 6.097 6.45556 6.05729 6.72724 6.05729C6.94862 6.05729 7.16374 6.08385 7.37042 6.1326C6.91219 6.49357 6.55552 6.97782 6.35026 7.53478ZM7.98663 4.25954C8.82768 4.25954 9.55115 4.76963 9.86533 5.49662C9.69251 5.46714 9.51468 5.45134 9.33333 5.45134C8.78144 5.45134 8.26219 5.59298 7.8093 5.84152C7.47111 5.71992 7.10687 5.65333 6.72724 5.65333C6.48496 5.65333 6.24897 5.68117 6.02193 5.73257C6.27084 4.88233 7.05707 4.25954 7.98663 4.25954ZM6.07913 4.76959C5.73939 5.19039 5.5354 5.72499 5.5354 6.30647C5.5354 7.65812 6.6349 8.75762 7.98663 8.75762C8.17893 8.75762 8.36566 8.73475 8.54528 8.69249C8.54925 8.74521 8.55208 8.79816 8.55208 8.85174C8.55208 9.00534 8.53446 9.15506 8.50196 9.29902C8.38817 9.30943 8.27839 9.3155 8.17208 9.31806C8.09088 9.32536 8.0089 9.33002 7.92583 9.33002C7.50841 9.33002 7.1123 9.23818 6.7559 9.07399C6.36737 8.9067 6.071 8.66825 5.84492 8.40401C5.461 7.97987 5.20471 7.43852 5.13692 6.8407C5.08881 6.87571 5.04376 6.9114 5.00017 6.94733C4.66245 7.21709 4.39766 7.57445 4.24073 7.98471C4.24626 6.6195 4.98324 5.42373 6.07913 4.76959ZM8.36498 9.70267C8.17418 10.1148 7.84978 10.4524 7.44715 10.6602C7.10582 10.3429 6.84368 9.94176 6.69574 9.48854C7.07482 9.64648 7.49033 9.73402 7.92592 9.73402C8.07495 9.73402 8.22133 9.7227 8.36498 9.70267ZM4.48493 8.85179C4.48493 8.38657 4.64236 7.95728 4.90651 7.61439C5.1513 8.28916 5.61592 8.85941 6.21392 9.23781C6.33191 9.84403 6.62321 10.3887 7.03347 10.8192C6.86897 10.8624 6.69643 10.8855 6.5186 10.8855C5.39728 10.8854 4.48493 9.97321 4.48493 8.85179ZM8.00009 11.7594C7.31747 11.7594 6.6768 11.5765 6.12441 11.2572C6.25281 11.2782 6.38431 11.2895 6.5186 11.2895C7.86266 11.2895 8.95617 10.196 8.95617 8.85179C8.95617 8.2086 8.70503 7.62365 8.2966 7.18765C8.44166 7.08595 8.60046 7.00274 8.76957 6.94112C9.09703 7.28857 9.33703 7.71896 9.45411 8.19746L9.45676 8.19482C9.45899 8.20394 9.46109 8.21358 9.46338 8.22353C9.46812 8.24904 9.47296 8.27465 9.47716 8.29989C9.49916 8.40693 9.51432 8.51625 9.52358 8.62726C9.5365 8.74644 9.54367 8.87475 9.5407 9.00895C9.54138 9.00895 9.54193 9.00913 9.54243 9.00913C9.54138 9.06149 9.53842 9.1148 9.53408 9.16884C9.5334 9.16903 9.53285 9.16921 9.53216 9.16921C9.51021 9.43336 9.44489 9.71193 9.30841 9.97864C9.15555 10.3391 8.94576 10.6149 8.75602 10.8123C8.75045 10.818 8.74502 10.8238 8.73959 10.8292C8.72055 10.8487 8.70207 10.8673 8.68358 10.885C8.67851 10.8898 8.67363 10.8946 8.66874 10.8993C8.65268 10.9146 8.63661 10.9295 8.62109 10.9435C8.61758 10.9468 8.61411 10.9502 8.61078 10.9532C8.59229 10.9696 8.57449 10.9853 8.55719 11C8.55354 11.0031 8.55002 11.0061 8.54655 11.009C8.5094 11.0403 8.47485 11.0679 8.44394 11.0914L8.44636 11.0925C8.44636 11.0925 8.60922 11.1804 8.88045 11.2466C8.88113 11.2459 8.882 11.2451 8.88268 11.2446C9.07033 11.2909 9.26615 11.3164 9.4679 11.3164C9.58571 11.3164 9.70142 11.3076 9.81471 11.2914C9.27642 11.5895 8.6577 11.7594 8.00009 11.7594ZM9.4679 10.9123C9.38186 10.9123 9.29668 10.9067 9.21324 10.8962C9.63509 10.3809 9.90038 9.73302 9.9353 9.02524C10.4222 8.63342 10.7925 8.10275 10.9864 7.49402C11.3146 7.85727 11.515 8.33819 11.515 8.8653C11.5151 9.99407 10.5968 10.9123 9.4679 10.9123Z" fill="white"/>
<defs>
<linearGradient id="paint0_linear" x1="3.39265" y1="1.46326" x2="12.6728" y2="14.629" gradientUnits="userSpaceOnUse">
<stop stop-color="#8DC33F"/>
<stop offset="1" stop-color="#00A7A7"/>
</linearGradient>
</defs>
</svg>
