<svg width="48" height="48" viewBox="0 0 48 48" fill="none" xmlns="http://www.w3.org/2000/svg">
<path d="M24.0003 0C10.7661 0 0 10.7666 0 23.9992C0 37.2329 10.7661 47.9995 24.0003 47.9995C37.2342 47.9995 48 37.2329 48 23.9992C48 10.7664 37.2342 0 24.0003 0ZM26.513 16.2196C22.9057 17.8971 20.1247 21.0608 18.9637 24.9202C18.0208 24.4781 17.1474 23.9132 16.3605 23.2471C17.4391 19.4756 19.9184 16.3349 23.1133 14.2069C24.1129 13.5411 25.3717 12.909 26.2493 12.663C27.9354 12.0617 29.745 11.7169 31.6361 11.7169C31.7171 11.7169 31.7982 11.72 31.88 11.7205C33.0007 11.72 34.2111 11.8358 35.4607 12.1362C35.5838 12.1663 35.7067 12.1976 35.8306 12.2311C35.8476 12.2355 35.8656 12.2397 35.8837 12.2447C36.1637 12.321 36.4436 12.4073 36.7265 12.5043C36.7704 12.5187 36.8164 12.5357 36.8606 12.5513C36.9534 12.5843 37.0465 12.6177 37.1403 12.6528C37.3853 12.7453 37.6302 12.8452 37.876 12.9547C37.8749 12.9304 37.872 12.9066 37.8699 12.8828C37.872 12.8844 37.8741 12.8849 37.876 12.8849C37.7079 10.7478 36.8044 8.68362 36.2334 7.56787C35.7958 6.76819 35.2798 6.01582 34.6992 5.32017C41.1607 9.03575 45.5241 16.0068 45.5311 23.9788C43.5177 18.6887 38.3959 14.9182 32.4068 14.9182C31.2482 14.9182 30.1227 15.0607 29.0452 15.3266C28.2329 15.5263 27.3846 15.8371 26.513 16.2196ZM39.1812 19.3959C38.4725 22.2608 36.9992 24.8258 34.9828 26.8568C34.5729 23.2651 33.1244 19.9843 30.9462 17.3233C31.4251 17.2637 31.9129 17.2318 32.4065 17.2318C34.9297 17.2316 37.2658 18.0349 39.1812 19.3959ZM23.9435 20.8564C25.2253 22.2019 26.191 23.8499 26.7149 25.6841C25.8192 25.905 24.8854 26.0244 23.9231 26.0244C22.9674 26.0244 22.0393 25.9071 21.1497 25.6906C21.683 23.8531 22.6558 22.2022 23.9435 20.8564ZM14.5512 21.3351C13.0747 19.3744 12.1984 16.9382 12.1984 14.3002C12.1984 14.0365 12.211 13.7756 12.2274 13.516C13.6509 13.1006 15.1543 12.8731 16.7103 12.8731C17.9782 12.8731 19.2102 13.0253 20.394 13.3045C17.7696 15.3718 15.7268 18.1452 14.5512 21.3351ZM23.9231 2.57709C28.7401 2.57709 32.8836 5.49847 34.683 9.66212C33.6932 9.49324 32.6747 9.40278 31.6361 9.40278C28.4753 9.40278 25.5013 10.214 22.9075 11.6374C20.9707 10.941 18.8845 10.5596 16.7103 10.5596C15.3227 10.5596 13.9711 10.719 12.6708 11.0134C14.0963 6.14392 18.5993 2.57709 23.9231 2.57709ZM12.9984 5.49821C11.0526 7.90824 9.88432 10.97 9.88432 14.3002C9.88432 22.0414 16.1814 28.3385 23.9231 28.3385C25.0245 28.3385 26.094 28.2076 27.1227 27.9655C27.1454 28.2674 27.1616 28.5707 27.1616 28.8776C27.1616 29.7573 27.0607 30.6147 26.8746 31.4393C26.2229 31.4989 25.5941 31.5336 24.9853 31.5483C24.5202 31.5901 24.0507 31.6168 23.5749 31.6168C21.1842 31.6168 18.9156 31.0908 16.8745 30.1504C14.6492 29.1923 12.9518 27.8267 11.657 26.3133C9.45821 23.8842 7.99033 20.7837 7.60212 17.3599C7.32658 17.5604 7.06856 17.7649 6.8189 17.9706C4.88465 19.5156 3.36815 21.5623 2.46938 23.9119C2.50101 16.0931 6.72191 9.24463 12.9984 5.49821ZM26.0901 33.751C24.9973 36.1116 23.1394 38.0448 20.8334 39.2351C18.8785 37.4179 17.3772 35.1203 16.5299 32.5247C18.701 33.4292 21.0807 33.9306 23.5755 33.9306C24.429 33.9306 25.2674 33.8658 26.0901 33.751ZM3.86798 28.8779C3.86798 26.2135 4.76962 23.7548 6.28246 21.791C7.68446 25.6556 10.3455 28.9215 13.7703 31.0887C14.4461 34.5606 16.1145 37.6802 18.4642 40.1459C17.522 40.3932 16.5338 40.5252 15.5153 40.5252C9.09326 40.5249 3.86798 35.3004 3.86798 28.8779ZM24.0003 45.5301C20.0907 45.5301 16.4214 44.4826 13.2577 42.6542C13.9931 42.7742 14.7462 42.8393 15.5153 42.8393C23.2131 42.8393 29.476 36.5762 29.476 28.8779C29.476 25.1942 28.0376 21.8441 25.6985 19.347C26.5292 18.7645 27.4387 18.288 28.4073 17.935C30.2827 19.925 31.6573 22.3899 32.3278 25.1304L32.343 25.1152C32.3558 25.1675 32.3678 25.2227 32.3809 25.2797C32.4081 25.4258 32.4358 25.5724 32.4598 25.717C32.5858 26.33 32.6726 26.9561 32.7257 27.5919C32.7997 28.2745 32.8407 29.0093 32.8237 29.7779C32.8277 29.7779 32.8308 29.779 32.8337 29.779C32.8277 30.0788 32.8107 30.3842 32.7858 30.6937C32.7819 30.6947 32.7788 30.6958 32.7749 30.6958C32.6491 32.2086 32.275 33.8041 31.4934 35.3315C30.6179 37.3957 29.4164 38.9755 28.3297 40.1061C28.2978 40.1386 28.2666 40.1718 28.2355 40.2031C28.1265 40.3148 28.0207 40.4212 27.9148 40.5226C27.8858 40.5498 27.8578 40.5772 27.8298 40.6041C27.7378 40.6922 27.6458 40.7772 27.5569 40.8577C27.5368 40.8763 27.5169 40.8959 27.4978 40.9129C27.3919 41.007 27.29 41.0967 27.1909 41.1814C27.17 41.1989 27.1499 41.2159 27.13 41.2326C26.9172 41.4119 26.7193 41.5698 26.5423 41.7047L26.5562 41.7107C26.5562 41.7107 27.4889 42.2145 29.0423 42.5936C29.0462 42.5894 29.0512 42.5849 29.0551 42.5821C30.1298 42.8469 31.2513 42.9933 32.4068 42.9933C33.0815 42.9933 33.7442 42.9428 34.393 42.8497C31.3101 44.5571 27.7666 45.5301 24.0003 45.5301ZM32.4068 40.6789C31.914 40.6789 31.4262 40.6465 30.9483 40.5864C33.3644 37.6354 34.8837 33.9248 35.0837 29.8713C37.8726 27.6272 39.9929 24.5879 41.1035 21.1016C42.9836 23.182 44.1312 25.9363 44.1312 28.9552C44.1315 35.4199 38.8722 40.6789 32.4068 40.6789Z" fill="url(#paint0_linear)"/>
<defs>
<linearGradient id="paint0_linear" x1="10.1779" y1="4.38973" x2="38.0179" y2="43.8868" gradientUnits="userSpaceOnUse">
<stop stop-color="#8DC33F"/>
<stop offset="1" stop-color="#00A7A7"/>
</linearGradient>
</defs>
</svg>
