<svg width="14" height="14" viewBox="0 0 14 14" fill="none" xmlns="http://www.w3.org/2000/svg">
<path d="M7.00004 0C3.14007 0 0 3.14027 0 6.99984C0 10.8597 3.14007 14 7.00004 14C10.8599 14 14 10.8597 14 6.99984C14 3.14027 10.8599 0 7.00004 0ZM7.73294 4.73076C6.68081 5.21999 5.86972 6.14279 5.53104 7.26853C5.25595 7.13952 5.00128 6.97477 4.77181 6.78045C5.0864 5.68039 5.8095 4.76435 6.74132 4.14373C7.03286 3.94952 7.40005 3.76513 7.65598 3.69338C8.1478 3.51801 8.67555 3.41742 9.22721 3.41742C9.2508 3.41742 9.27443 3.41828 9.29834 3.41845C9.62516 3.41832 9.97824 3.45213 10.3427 3.53975C10.3786 3.54849 10.4144 3.55768 10.4506 3.56744C10.4555 3.56875 10.4608 3.56994 10.466 3.57138C10.5477 3.5937 10.6293 3.61876 10.7118 3.64707C10.7246 3.65129 10.7381 3.65625 10.7509 3.66077C10.778 3.67037 10.8051 3.68017 10.8325 3.69034C10.9039 3.71734 10.9754 3.74646 11.0471 3.77838C11.0468 3.77124 11.0459 3.76439 11.0453 3.75738C11.0459 3.75783 11.0465 3.75795 11.0471 3.75795C10.9981 3.13461 10.7345 2.53253 10.568 2.20713C10.4404 1.97388 10.2899 1.75449 10.1205 1.55155C12.0051 2.63529 13.2778 4.66848 13.2799 6.99372C12.6927 5.45078 11.1987 4.35101 9.45197 4.35101C9.11407 4.35101 8.78577 4.39257 8.4715 4.4701C8.2346 4.5286 7.9872 4.61926 7.73294 4.73076ZM11.4279 5.65721C11.2212 6.49288 10.7914 7.24097 10.2033 7.83329C10.0838 6.7857 9.66131 5.82881 9.026 5.05266C9.16564 5.03531 9.30794 5.026 9.45197 5.026C10.1879 5.02596 10.8692 5.26024 11.4279 5.65721ZM6.98359 6.08319C7.35738 6.47561 7.63908 6.95627 7.79185 7.49129C7.53062 7.55573 7.25827 7.59056 6.9776 7.59056C6.6989 7.59056 6.42815 7.55631 6.16869 7.49317C6.3242 6.95725 6.60791 6.47577 6.98359 6.08319ZM4.2441 6.22283C3.81345 5.65093 3.55792 4.94038 3.55792 4.17096C3.55792 4.09401 3.56157 4.01791 3.56637 3.94222C3.98156 3.82108 4.42008 3.75475 4.87387 3.75475C5.24372 3.75475 5.60304 3.7991 5.94828 3.88057C5.18277 4.48351 4.58696 5.29244 4.2441 6.22283ZM6.9776 0.751656C8.38257 0.751656 9.59103 1.60373 10.1158 2.81812C9.8272 2.76886 9.53012 2.74248 9.22717 2.74248C8.30524 2.74248 7.43787 2.9791 6.68134 3.39428C6.11643 3.19118 5.50795 3.07997 4.87383 3.07997C4.46915 3.07997 4.07497 3.12649 3.69563 3.21235C4.11143 1.79195 5.42475 0.751656 6.9776 0.751656ZM3.79117 1.60361C3.22368 2.30657 2.88295 3.19963 2.88295 4.17096C2.88295 6.42884 4.71963 8.26554 6.9776 8.26554C7.29885 8.26554 7.61078 8.22735 7.91081 8.15679C7.9175 8.24483 7.92218 8.33335 7.92218 8.42287C7.92218 8.67942 7.89272 8.92945 7.83849 9.16997C7.6484 9.18732 7.46503 9.19754 7.28744 9.20176C7.15182 9.21399 7.01489 9.22174 6.87615 9.22174C6.17886 9.22174 5.51722 9.06836 4.92182 8.794C4.27281 8.51451 3.77776 8.11626 3.40003 7.67482C2.75873 6.96632 2.33059 6.06206 2.21732 5.06345C2.137 5.12191 2.06177 5.18151 1.98887 5.24161C1.42474 5.6922 0.982396 6.2892 0.720306 6.97452C0.729495 4.69388 1.96061 2.69637 3.79117 1.60361ZM7.60963 9.84417C7.29093 10.5327 6.74903 11.0966 6.07643 11.4437C5.50631 10.9137 5.06836 10.2435 4.82128 9.48646C5.45454 9.75031 6.14859 9.89656 6.8762 9.89656C7.12512 9.89656 7.36965 9.87757 7.60963 9.84417ZM1.12819 8.42282C1.12819 7.64565 1.39118 6.92858 1.83245 6.35578C2.24136 7.483 3.0175 8.4355 4.01639 9.06762C4.2135 10.0804 4.7001 10.9902 5.38541 11.7093C5.11061 11.7815 4.82243 11.8199 4.52531 11.8199C2.6522 11.82 1.12819 10.2961 1.12819 8.42282ZM7.00004 13.2798C5.85975 13.2798 4.78957 12.9743 3.86682 12.441C4.08128 12.476 4.30096 12.4949 4.52531 12.4949C6.77044 12.4949 8.59711 10.6682 8.59711 8.42278C8.59711 7.34836 8.17754 6.37121 7.49534 5.64285C7.73762 5.47302 8.00295 5.33395 8.28547 5.23103C8.83245 5.81137 9.23332 6.53037 9.42896 7.3297L9.43335 7.32535C9.43712 7.34065 9.44061 7.35669 9.44442 7.37331C9.4523 7.41589 9.46046 7.45871 9.46748 7.50084C9.50423 7.67958 9.52958 7.86225 9.54505 8.04767C9.56663 8.2468 9.57856 8.46114 9.5736 8.68533C9.57475 8.68533 9.57565 8.68562 9.57651 8.68562C9.57475 8.77308 9.56983 8.86214 9.56252 8.95239C9.56137 8.95267 9.56047 8.95296 9.55932 8.95296C9.52257 9.39424 9.41353 9.8596 9.18553 10.3051C8.93013 10.9072 8.57968 11.368 8.26278 11.6977C8.25343 11.7072 8.2444 11.7169 8.23534 11.726C8.20359 11.7585 8.1727 11.7895 8.14177 11.8192C8.13332 11.827 8.12515 11.8351 8.11699 11.8429C8.09016 11.8686 8.06329 11.8933 8.03741 11.9168C8.03154 11.9223 8.02576 11.928 8.02018 11.9329C7.98929 11.9604 7.95951 11.9866 7.93067 12.0113C7.92455 12.0164 7.91873 12.0214 7.91286 12.0262C7.85076 12.0785 7.79304 12.1246 7.74143 12.1639L7.74549 12.1657C7.74549 12.1657 8.01755 12.3126 8.47064 12.4231C8.47179 12.4219 8.47322 12.4206 8.47441 12.4198C8.78786 12.497 9.11497 12.5398 9.45201 12.5398C9.64883 12.5398 9.84213 12.525 10.0314 12.4979C9.13212 12.996 8.09857 13.2798 7.00004 13.2798ZM9.45197 11.8649C9.30823 11.8649 9.16596 11.8554 9.02661 11.8379C9.73133 10.9772 10.1744 9.89496 10.2328 8.71261C11.0462 8.05805 11.6646 7.17156 11.9886 6.15473C12.537 6.7615 12.8716 7.56488 12.8716 8.44539C12.8716 10.331 11.3378 11.8649 9.45197 11.8649Z" fill="white"/>
</svg>
