<svg width="14" height="14" viewBox="0 0 14 14" fill="none" xmlns="http://www.w3.org/2000/svg">
<g clip-path="url(#clip0)">
<path d="M2.91666 1.34171L13.7667 8.75003L11.0833 12.7167L0.23333 5.25003L2.91666 1.34171Z" fill="white"/>
<path d="M13.7666 8.75002C12.8333 10.0917 9.68328 9.56669 6.70828 7.46669C3.67495 5.42502 2.04162 2.68336 2.91661 1.34169C3.84995 2.68817e-05 6.99995 0.525026 9.97495 2.62502C13.0083 4.60836 14.6416 7.40836 13.7666 8.75002Z" fill="#BEBEBE"/>
<path d="M11.0833 12.6584C10.15 14 7 13.475 4.025 11.375C1.04999 9.27503 -0.64168 6.5917 0.291654 5.1917C1.22499 3.85003 4.375 4.37503 7.35 6.47503C10.325 8.57503 11.9583 11.3167 11.0833 12.6584Z" fill="white"/>
<path d="M13.7666 8.75004L11.0833 12.7167C10.15 14.0584 6.99997 13.475 4.02497 11.4334C3.44164 11.025 2.91664 10.6167 2.39164 10.15C2.79997 10.0917 3.32497 9.85838 3.84997 9.27504C4.78331 8.28338 5.24997 8.05004 5.65831 8.10838C6.06664 8.10838 6.53331 8.51671 7.29164 9.50838C8.04997 10.5 9.09997 10.7917 9.74164 10.2667C9.79997 10.2084 9.85831 10.2084 9.91664 10.15C10.4416 9.74171 10.6166 9.56671 11.6083 7.70004C11.8416 7.23338 12.6583 6.47504 13.7666 6.82504C14.0583 7.58338 14.0583 8.22504 13.7666 8.75004Z" fill="#E2E2E2"/>
<path fill-rule="evenodd" clip-rule="evenodd" d="M13.3583 8.51668C12.5416 9.68335 9.68329 9.10001 6.94162 7.17501C4.14162 5.25001 2.50829 2.80001 3.32495 1.63335C4.14162 0.466684 6.99995 1.05002 9.74162 2.97501C12.4833 4.90001 14.1166 7.35001 13.3583 8.51668ZM10.7916 6.76668C10.3833 7.35001 8.98329 7.05835 7.58329 6.12501C6.24162 5.19168 5.42495 3.96668 5.83329 3.38335C6.24162 2.80001 7.64162 3.09168 9.04162 4.02501C10.3833 4.95835 11.2 6.18335 10.7916 6.76668Z" fill="white"/>
<path d="M2.68331 2.68336C2.68331 2.62502 2.62497 2.56669 2.56664 2.62502C2.50831 2.68336 2.44997 2.68336 2.44997 2.74169C2.50831 2.91669 2.56664 3.03336 2.56664 3.15002C2.56664 3.20836 2.62497 3.26669 2.68331 3.20836C2.74164 3.20836 2.79997 3.15002 2.74164 3.09169C2.74164 2.97502 2.74164 2.85836 2.68331 2.68336ZM2.97497 3.61669C2.97497 3.55836 2.91664 3.50002 2.85831 3.55836C2.79997 3.61669 2.79997 3.61669 2.79997 3.67502C3.44164 5.13336 4.78331 6.70836 6.53331 7.87502C6.59164 7.93336 6.64997 7.87502 6.70831 7.87502C6.76664 7.81669 6.70831 7.75836 6.70831 7.70002C4.89997 6.53336 3.61664 5.01669 2.97497 3.61669ZM10.0333 9.33336C9.97497 9.33336 9.91664 9.33336 9.91664 9.39169C9.91664 9.45002 9.91664 9.50836 9.97497 9.50836L10.5583 9.68336C10.6166 9.68336 10.675 9.68336 10.675 9.62502C10.675 9.56669 10.675 9.50836 10.6166 9.50836L10.0333 9.33336ZM11.0833 9.56669C11.025 9.56669 10.9666 9.62502 10.9666 9.68336C10.9666 9.74169 11.025 9.80002 11.0833 9.80002C11.55 9.85836 12.075 9.91669 12.4833 9.85836C12.5416 9.85836 12.6 9.80002 12.6 9.74169C12.6 9.68336 12.5416 9.62502 12.4833 9.62502C12.0166 9.68336 11.55 9.62502 11.0833 9.56669Z" fill="#BEBEBE"/>
</g>
<defs>
<clipPath id="clip0">
<rect width="14" height="14" fill="white"/>
</clipPath>
</defs>
</svg>
