<svg width="14" height="14" viewBox="0 0 14 14" fill="none" xmlns="http://www.w3.org/2000/svg">
<path d="M3.33175 7.26041L3.7015 4.47572L0.489258 2.24563L3.42419 3.23934L4.11747 2.1763L6.64796 0.604858L12.2289 3.67842L12.5178 8.36967L10.0335 11.8246L8.06921 12.125L9.08603 10.2647V8.47367L8.34653 7.07553L7.59545 6.57869L6.43997 7.76882V9.0283L5.5387 9.87179L4.39479 10.0104L3.88638 10.2993L3.05443 10.0336L2.70779 8.78564L3.33175 7.90748V7.26041Z" fill="white"/>
<path d="M8.46178 2.22249C7.84939 2.09538 7.17921 2.13005 7.17921 2.13005C7.17921 2.13005 6.95966 3.14688 5.59619 3.41262C5.60776 3.41262 7.39874 4.02504 8.46178 2.22249Z" fill="black"/>
<path d="M9.01604 11.4433C9.75555 10.8655 10.3102 10.0682 10.5644 9.16697C10.5759 9.13229 10.6799 9.07453 10.7493 9.02831C10.8648 8.95898 10.9804 8.9012 11.0035 8.80876C11.0497 8.54301 11.0728 8.2657 11.0728 7.98838C11.0728 7.88437 10.9688 7.7804 10.8648 7.67639C10.7839 7.60706 10.703 7.52619 10.703 7.4684C10.5875 6.41693 10.1022 5.43476 9.32801 4.71836L9.24714 4.79926C9.99819 5.50409 10.4835 6.46315 10.5875 7.47997C10.599 7.57241 10.6915 7.66485 10.7839 7.75728C10.8648 7.82661 10.9572 7.93059 10.9572 7.97681C10.9572 8.24259 10.9341 8.50833 10.8879 8.77411C10.8764 8.82033 10.7724 8.86654 10.6915 8.91276C10.5759 8.97052 10.4719 9.02831 10.4488 9.12075C10.1715 10.1029 9.536 10.9579 8.69251 11.5126C8.84271 11.189 9.31647 10.1376 9.57067 9.60605L9.52445 7.89594L8.05698 6.47469L7.22504 6.59024L6.31222 8.06925C6.31222 8.06925 6.73974 8.61234 6.13889 9.24784C5.54961 9.8718 5.08741 10.0105 5.08741 10.0105L4.65987 9.77936C4.78699 9.61759 5.0412 9.37496 5.23761 9.21319C5.57272 8.93587 5.90779 8.91276 5.90779 8.61234C5.91936 7.98838 5.24918 8.16169 5.24918 8.16169L5.00652 8.39279L4.90254 9.24784L4.39413 9.88337L4.33634 9.8718L3.50439 9.68692C3.50439 9.68692 4.01281 9.42118 4.0937 9.12075C4.17457 8.83187 3.93193 7.87283 3.92037 7.81505C3.93193 7.82661 4.16303 8.02303 4.26701 8.34657C4.45189 7.83816 4.69455 7.35285 4.76388 7.30664C4.83321 7.26042 5.76913 6.76357 5.76913 6.76357L5.45717 7.58395L5.68826 7.45686L6.24289 6.0934C6.24289 6.0934 6.78596 5.82762 7.19039 5.82762C7.91832 5.81608 8.99293 4.92635 8.50763 3.33179C8.64629 3.38957 11.0497 4.59127 11.4657 6.94845C11.7776 8.76254 10.7493 10.4611 9.01604 11.4433Z" fill="black"/>
<path d="M6.26653 2.47681C6.53231 2.16482 6.4283 1.70264 6.4283 1.70264L5.65414 2.84657C5.64258 2.84657 5.93146 2.85811 6.26653 2.47681Z" fill="#D9D9D9"/>
<path d="M3.66678 8.72794L3.75922 8.26575C3.75922 8.26575 3.3779 8.93593 3.34325 9.02836C3.30857 9.13237 3.36636 9.31725 3.51656 9.30568C3.66678 9.29414 3.85166 9.07458 3.85166 8.91282C3.85166 8.70483 3.66678 8.72794 3.66678 8.72794Z" fill="#D9D9D9"/>
<path d="M10.5301 1.37912C10.5301 1.37912 11.1079 1.40223 11.7087 1.47156C10.3568 0.40852 9.0742 0.0965406 8.03426 0.0965406C6.60147 0.0965406 5.63089 0.685835 5.57311 0.720499L6.02376 0.0041023C6.02376 0.0041023 4.22118 -0.16922 3.58568 1.73732C3.42392 1.3329 3.27369 0.743609 3.27369 0.743609C3.27369 0.743609 2.33777 1.564 2.77685 2.92747C1.70225 2.53461 0.165465 1.99152 0.107691 1.97998C0.0268071 1.96841 0.00369754 2.00309 0.00369754 2.00309C0.00369754 2.00309 -0.0194121 2.03774 0.0499167 2.09552C0.177019 2.1995 2.60351 3.99051 3.13503 4.33715C3.01948 4.75313 3.01948 4.94955 3.13503 5.14599C3.2968 5.41174 3.30837 5.55039 3.28526 5.74684C3.26215 5.94326 3.05416 7.64183 3.00794 7.84981C2.96172 8.0578 2.47642 8.7973 2.49953 9.01683C2.52264 9.23639 2.82307 10.1723 3.08884 10.2763C3.28526 10.3456 3.77056 10.4958 4.09409 10.4958C4.20964 10.4958 4.31365 10.4727 4.35987 10.4265C4.55629 10.2532 4.61405 10.2185 4.75273 10.2185C4.76427 10.2185 4.77584 10.2185 4.78738 10.2185C4.84517 10.2185 4.9145 10.2301 4.99537 10.2301C5.18024 10.2301 5.42291 10.1954 5.59622 10.0337C5.85042 9.77945 6.2895 9.4328 6.42816 9.27104C6.6015 9.05151 6.69394 8.75108 6.64769 8.45066C6.61304 8.17334 6.76324 7.93068 6.93657 7.68804C7.15613 7.39916 7.56053 6.87921 7.56053 6.87921C8.35782 7.48006 8.85467 8.39287 8.85467 9.40969C8.85467 11.2122 7.28322 12.6681 5.34201 12.6681C5.04159 12.6681 4.75273 12.6335 4.46385 12.5642C5.35358 12.8761 6.10463 12.9801 6.71704 12.9801C8.02272 12.9801 8.71601 12.5064 8.71601 12.5064C8.71601 12.5064 8.47335 12.8184 8.08048 13.1766C8.09205 13.1766 8.09205 13.1766 8.09205 13.1766C10.2528 12.8761 11.3043 11.0967 11.3043 11.0967C11.3043 11.0967 11.2234 11.6744 11.1194 12.0673C13.9965 9.90656 13.5112 7.20274 13.4997 7.1103C13.5228 7.14496 13.8117 7.4916 13.9619 7.67648C14.4241 2.9159 10.5301 1.37912 10.5301 1.37912ZM6.10463 8.98218C6.05841 9.03994 5.86199 9.21328 5.72331 9.34037C5.58468 9.46748 5.43445 9.59457 5.3189 9.71012C5.27268 9.75634 5.18024 9.77945 5.04159 9.77945C4.99537 9.77945 4.94915 9.77945 4.91447 9.77945C4.89139 9.77945 4.86828 9.77945 4.84517 9.77945C4.82206 9.77945 4.81049 9.77945 4.79892 9.77945C4.76427 9.77945 4.72959 9.77945 4.69494 9.77945C4.86828 9.54835 5.37666 9.01683 5.55 8.90128C5.75798 8.76263 5.86196 8.62397 5.73487 8.38133C5.60776 8.13867 5.27268 8.19646 5.27268 8.19646C5.27268 8.19646 5.46913 8.11556 5.64244 8.11556C5.42291 8.0578 5.14559 8.11556 5.01848 8.24267C4.87982 8.36976 4.90293 8.82041 4.84517 9.10927C4.78738 9.4097 4.59094 9.55992 4.29054 9.83724C4.12874 9.98743 4.01322 10.0337 3.92079 10.0337C3.72434 9.999 3.49324 9.94122 3.33148 9.88345C3.21593 9.73323 3.04259 9.23639 2.99638 9.0284C3.03105 8.91285 3.16971 8.67019 3.23904 8.53153C3.3777 8.26578 3.45859 8.11556 3.48168 7.9769C3.5279 7.78048 3.67812 6.56722 3.73591 6.05881C3.88611 6.25525 4.09409 6.57878 4.04787 6.78677C4.38298 6.31301 4.14031 5.85082 4.02477 5.66594C3.92079 5.48107 3.78213 5.11131 3.89768 4.71845C4.01322 4.32559 4.4292 3.23944 4.4292 3.23944C4.4292 3.23944 4.56785 3.4821 4.76427 3.43588C4.96072 3.38966 6.54371 1.00937 6.54371 1.00937C6.54371 1.00937 6.97125 1.9453 6.5206 2.62705C6.05841 3.30876 5.60776 3.43588 5.60776 3.43588C5.60776 3.43588 6.24329 3.55143 6.83259 3.12389C7.07523 3.69009 7.30633 4.27937 7.31789 4.36026C7.28322 4.44113 6.82102 5.55039 6.77481 5.61972C6.7517 5.64283 6.58993 5.68905 6.47438 5.71216C6.27796 5.76995 6.16241 5.8046 6.1162 5.83928C6.0353 5.90861 5.66555 6.92543 5.49221 7.42227C5.28425 7.48006 5.07624 7.59561 4.92604 7.8267C5.00694 7.76891 5.26111 7.73426 5.44602 7.71115C5.60776 7.69959 6.10463 7.96536 6.23174 8.4622C6.23174 8.47377 6.23174 8.47377 6.23174 8.48531C6.25485 8.67019 6.19707 8.84352 6.10463 8.98218ZM5.01848 9.12084C5.12248 8.97061 5.11092 8.71641 5.12248 8.63554C5.13402 8.55464 5.15713 8.40444 5.24957 8.38133C5.34201 8.35822 5.56157 8.39287 5.56157 8.55464C5.56157 8.70487 5.3998 8.73952 5.28425 8.84352C5.20335 8.92439 5.04159 9.09773 5.01848 9.12084ZM9.62883 6.91386C9.74437 6.32458 9.75594 5.81617 9.72126 5.4002C10.1719 6.00104 10.4492 6.72898 10.5301 7.48006C10.5417 7.5725 10.6341 7.66493 10.7265 7.75737C10.8074 7.8267 10.8999 7.91914 10.8999 7.9769C10.8999 8.24267 10.8767 8.50842 10.8305 8.7742C10.819 8.80885 10.715 8.86663 10.6341 8.91285C10.5186 8.97061 10.4146 9.0284 10.3914 9.12084C10.1373 10.0105 9.59418 10.7963 8.86621 11.3509C9.94082 10.2301 10.4608 8.38133 9.62883 6.91386ZM8.90089 11.4549C9.65194 10.8772 10.2297 10.0683 10.4839 9.15549C10.4954 9.12084 10.5995 9.06305 10.6688 9.01683C10.7843 8.95907 10.8999 8.88974 10.923 8.7973C10.9692 8.53153 10.9923 8.25422 10.9923 7.9769C10.9923 7.87292 10.8883 7.76891 10.7843 7.66493C10.7265 7.59561 10.6341 7.51471 10.6341 7.45695C10.5417 6.61344 10.2066 5.81617 9.68661 5.15753C9.45552 3.77096 8.53113 3.34344 8.50802 3.33187C8.53113 3.36655 9.13198 4.23315 8.71601 5.24997C8.28847 6.27836 7.19078 6.11659 7.09834 6.12813C7.0059 6.12813 6.64769 6.59033 6.19707 7.44538C6.13931 7.42227 5.89664 7.36451 5.61933 7.41073C5.82731 6.83299 6.13931 6.01259 6.19707 5.94326C6.22018 5.92015 6.39351 5.87393 6.50906 5.83928C6.72859 5.78149 6.83259 5.74684 6.86724 5.70062C6.89035 5.66594 7.0059 5.40019 7.12145 5.12288C7.22543 5.12288 7.4912 5.09977 7.51431 5.0882C7.53742 5.06509 7.75695 4.49892 7.75695 4.42959C7.75695 4.37181 7.30633 3.251 7.13302 2.82346C7.21389 2.73103 7.29478 2.61548 7.37565 2.48839C9.74437 2.74259 11.5931 4.75313 11.5931 7.19117C11.5931 9.06305 10.4954 10.6923 8.90089 11.4549Z" fill="#D9D9D9"/>
<path d="M5.82722 5.21527C6.04677 4.96106 5.93122 4.4873 5.52679 4.40643C5.6308 4.16377 5.781 3.67847 5.781 3.67847C5.781 3.67847 4.60241 5.52723 4.49843 5.56191C4.39442 5.59656 4.29044 5.19216 4.29044 5.19216C4.07089 6.03564 4.6602 6.15119 4.72952 5.88545C5.05306 5.80455 5.60769 5.4579 5.82722 5.21527Z" fill="#D9D9D9"/>
<path d="M4.82227 5.66606L5.42312 4.6377C5.42312 4.6377 5.76976 4.811 5.59645 5.08832C5.3769 5.41185 4.82227 5.66606 4.82227 5.66606Z" fill="white"/>
<path d="M12.2517 10.4265C12.0784 10.6576 11.882 10.9002 11.6509 11.1313C13.1414 8.26575 11.7202 5.64282 11.6624 5.53882C11.7664 5.64282 11.8704 5.75837 11.9628 5.86235C13.1068 7.13338 13.2454 9.03993 12.2517 10.4265Z" fill="white"/>
<path d="M13.6382 6.7406C13.1182 5.34249 12.3787 4.15233 10.7495 3.07775C9.17804 2.03782 7.49104 2.11869 7.3986 2.13026C7.38703 2.13026 7.37549 2.13026 7.37549 2.13026C7.43325 2.10715 7.49104 2.09558 7.5488 2.08404C7.90701 1.96849 8.3692 1.87605 8.83139 1.81827C10.0562 1.64495 11.2925 2.06093 12.1361 2.95063C12.1476 2.9622 12.1476 2.9622 12.1592 2.97374C13.1182 3.99056 13.6151 5.26159 13.6382 6.7406Z" fill="white"/>
<path d="M10.3795 1.02094C8.65784 0.697401 7.54858 0.859168 6.75131 1.15959C6.7282 1.06715 6.64731 0.882278 6.57798 0.732065C6.33534 1.02094 6.08114 1.36758 5.91937 1.58712C5.48029 1.88753 5.29541 2.17642 5.29541 2.17642C5.54962 1.3098 6.28912 0.662737 7.1904 0.500969C7.4446 0.45475 7.72192 0.431641 8.02234 0.431641C8.81961 0.443195 9.6169 0.639627 10.3795 1.02094Z" fill="white"/>
<path d="M4.01293 3.23953C2.66101 3.19331 3.11166 1.62186 3.13477 1.52942C3.13477 1.54097 3.22721 2.76577 4.01293 3.23953Z" fill="white"/>
<path d="M5.34163 0.408569C4.3017 1.03253 4.50969 2.52309 4.50969 2.52309C3.51598 1.00942 5.26076 0.443234 5.34163 0.408569Z" fill="white"/>
<path d="M3.63196 3.65536C3.70128 3.71315 3.77061 3.81713 3.68974 3.96735C3.64352 4.04822 3.57419 4.03668 3.47019 3.99046C3.33153 3.92114 2.49959 3.43583 1.74854 2.93896C2.60359 3.23939 3.47019 3.56292 3.60885 3.63225C3.60885 3.63225 3.62041 3.64382 3.63196 3.65536Z" fill="white"/>
</svg>
