<svg width="30" height="30" viewBox="0 0 30 30" fill="none" xmlns="http://www.w3.org/2000/svg">
<rect x="0.25" y="0.25" width="29.5" height="29.5" rx="9.75" fill="#1F1F1F"/>
<g clip-path="url(#clip0)">
<path d="M21.3 14.3H15.7V8.69996C15.7 8.31364 15.3864 8 15 8C14.6136 8 14.3 8.31364 14.3 8.69996V14.3H8.69996C8.31364 14.3 8 14.6136 8 15C8 15.3864 8.31364 15.7 8.69996 15.7H14.3V21.3C14.3 21.6864 14.6136 22 15 22C15.3864 22 15.7 21.6864 15.7 21.3V15.7H21.3C21.6864 15.7 22 15.3864 22 15C22 14.6136 21.6864 14.3 21.3 14.3V14.3Z" fill="#8DC33F"/>
</g>
<rect x="0.25" y="0.25" width="29.5" height="29.5" rx="9.75" stroke="#484848" stroke-width="0.5"/>
<defs>
<clipPath id="clip0">
<rect width="14" height="14" fill="white" transform="translate(8 8)"/>
</clipPath>
</defs>
</svg>
