<?xml version="1.0" encoding="utf-8"?>
<!-- Generator: Adobe Illustrator 16.0.0, SVG Export Plug-In . SVG Version: 6.00 Build 0)  -->
<!DOCTYPE svg PUBLIC "-//W3C//DTD SVG 1.1//EN" "http://www.w3.org/Graphics/SVG/1.1/DTD/svg11.dtd">
<svg version="1.1" id="Layer_1" xmlns="http://www.w3.org/2000/svg" xmlns:xlink="http://www.w3.org/1999/xlink" x="0px" y="0px"
	 width="1000px" height="1000px" viewBox="0 0 1000 1000" enable-background="new 0 0 1000 1000" xml:space="preserve">
<g>
	<g>
		<path fill-rule="evenodd" clip-rule="evenodd" fill="#FFFFFF" d="M1001.5,1001.5c-333.667,0-667.333,0-1001,0
			c0-333.667,0-667.333,0-1001c333.667,0,667.333,0,1001,0C1001.5,334.167,1001.5,667.833,1001.5,1001.5z M114.482,527.443
			c-0.413,0.088-0.825,0.176-1.238,0.264c0,1.477-0.022,2.953,0.003,4.429c0.4,23.523,2.693,46.839,7.388,69.918
			c18.111,89.042,62.025,162.845,131.215,221.562c29.601,25.119,62.407,45.26,98.184,60.436
			c34.712,14.724,70.764,24.337,108.284,28.498c27.422,3.041,54.835,3.125,82.303,0.908c40.349-3.256,79.368-11.884,115.984-29.533
			c36.123-17.413,67.164-41.25,89.853-74.805c34.539-51.081,45.218-107.763,35.209-167.786
			c-15.071-90.388-63.347-158.622-142.962-204.05c-39.522-22.552-82.688-33.748-127.996-36.342
			c-14.479-0.829-29.046-0.13-43.572-0.13c26.564,14.531,50.609,31.391,66.742,57.881c-0.973,0.347-1.298,0.589-1.568,0.537
			c-1.47-0.278-2.942-0.567-4.384-0.963c-30.453-8.341-61.432-13.352-92.989-14.671c-49.314-2.061-97.059,5.088-141.862,26.435
			c-16.441,7.834-31.644,18.263-47.431,27.475c-3.424,1.997-3.736,4.245-1.077,7.178c2.906,3.205,5.458,6.748,8.501,9.811
			c17.786,17.9,39.904,27.308,64.212,32.167c7.874,1.573,15.873,2.517,23.815,3.749c-2.355-4.957-5.438-8.409-7.852-12.277
			c-6.755-10.821-4.949-21.213,5.599-28.294c5.718-3.838,12.188-6.998,18.763-9.039c22.218-6.899,45.072-7.806,68.185-6.401
			c24.921,1.514,49.194,5.976,72.678,14.425c13.49,4.854,26.277,10.299,35.453,22.732c18.341,24.853,25.709,51.715,17.088,81.715
			c-8.147,28.354-26.401,49.822-49.787,66.885c-53.155,38.783-112.886,50.633-176.943,39.642
			c-60.827-10.437-109.232-42.86-148.591-89.536c-22.358-26.515-40.027-55.99-54.294-87.549
			C119.093,537.62,116.787,532.533,114.482,527.443z M683.187,91.185c-12.047,41.593-32.114,78.78-61.372,112.247
			c9.866-2.944,18.503-5.522,27.141-8.101c-1.728,4.046-4.064,7.214-6.454,10.342c-26.704,34.968-59.52,62.087-100.633,78.658
			c-1.764,0.711-3.454,2.942-4.11,4.837c-4.048,11.679-8.902,22.952-16.406,32.842c-3.846,5.068-8.3,9.673-12.817,14.877
			c33-11.831,62.462-29.127,89.93-49.723c17.008-12.753,30.839-28.841,43.035-46.293c19.03-27.229,29.938-57.652,35.99-90.063
			C681.163,131.136,683.475,111.35,683.187,91.185z M755.494,365.817c4.585,8.032,8.51,14.909,12.436,21.786
			c-43.553-21.106-88.549-33.386-136.354-34.839c1.863,0.669,3.791,1.093,5.735,1.421c42.064,7.114,80.638,22.76,115.795,46.974
			c3.679,2.533,8.217,4.236,12.605,5.227c7.103,1.604,14.456,2.054,21.624,3.414c26.086,4.951,51.474,11.98,74.482,25.846
			c0.824,0.497,1.883,0.604,2.833,0.894C831.081,409.191,795.951,384.563,755.494,365.817z M407.905,343.286
			c49.004,2.536,81.754-21.085,90.784-63.378c-9.29,4.823-19.443,9.997-29.471,15.404c-1.574,0.85-3.159,2.558-3.751,4.22
			c-7.021,19.721-21.515,31.531-40.535,38.509C419.365,340.084,413.587,341.554,407.905,343.286z M250.526,440.804
			c0.83-1.589,1.619-3.2,2.497-4.762c4.478-7.969,9.941-14.979,18.792-18.464c7.113-2.801,11.527,0.191,11.417,7.685
			c-0.031,2.094-0.384,4.184-0.589,6.274c1.808-3.172,3.094-6.525,3.596-9.992c0.651-4.491,0.683-9.185-3.753-12.102
			c-4.354-2.865-8.745-1.334-12.667,0.991C258.391,417.206,252.706,427.917,250.526,440.804z"/>
		<path fill-rule="evenodd" clip-rule="evenodd" d="M114.482,527.443c2.304,5.09,4.61,10.177,6.912,15.268
			c14.268,31.559,31.937,61.034,54.294,87.549c39.358,46.676,87.764,79.1,148.591,89.536
			c64.058,10.991,123.788-0.858,176.943-39.642c23.386-17.063,41.64-38.531,49.787-66.885c8.621-30,1.253-56.862-17.088-81.715
			c-9.176-12.434-21.963-17.878-35.453-22.732c-23.483-8.449-47.757-12.911-72.678-14.425c-23.112-1.404-45.967-0.498-68.185,6.401
			c-6.574,2.041-13.045,5.201-18.763,9.039c-10.548,7.081-12.354,17.473-5.599,28.294c2.414,3.868,5.496,7.32,7.852,12.277
			c-7.942-1.232-15.941-2.176-23.815-3.749c-24.309-4.859-46.427-14.267-64.212-32.167c-3.042-3.063-5.595-6.605-8.501-9.811
			c-2.659-2.933-2.347-5.181,1.077-7.178c15.787-9.212,30.99-19.641,47.431-27.475c44.803-21.347,92.547-28.495,141.862-26.435
			c31.558,1.319,62.536,6.33,92.989,14.671c1.441,0.396,2.914,0.685,4.384,0.963c0.271,0.052,0.596-0.19,1.568-0.537
			c-16.133-26.49-40.178-43.35-66.742-57.881c14.526,0,29.093-0.699,43.572,0.13c45.309,2.594,88.474,13.79,127.996,36.342
			c79.615,45.428,127.891,113.662,142.962,204.05c10.009,60.023-0.67,116.705-35.209,167.786
			c-22.688,33.555-53.729,57.392-89.853,74.805c-36.616,17.649-75.636,26.277-115.984,29.533
			c-27.468,2.217-54.881,2.133-82.303-0.908c-37.521-4.161-73.572-13.774-108.284-28.498
			c-35.777-15.176-68.583-35.316-98.184-60.436c-69.19-58.717-113.104-132.52-131.215-221.562
			c-4.694-23.079-6.988-46.395-7.388-69.918c-0.025-1.476-0.003-2.952-0.003-4.429C113.657,527.619,114.07,527.531,114.482,527.443z
			"/>
		<path fill-rule="evenodd" clip-rule="evenodd" d="M683.187,91.185c0.288,20.165-2.023,39.951-5.697,59.624
			c-6.052,32.41-16.96,62.833-35.99,90.063c-12.196,17.452-26.027,33.54-43.035,46.293c-27.468,20.596-56.93,37.892-89.93,49.723
			c4.518-5.204,8.972-9.809,12.817-14.877c7.504-9.89,12.358-21.163,16.406-32.842c0.656-1.895,2.347-4.126,4.11-4.837
			c41.113-16.571,73.929-43.69,100.633-78.658c2.39-3.128,4.727-6.296,6.454-10.342c-8.638,2.578-17.274,5.156-27.141,8.101
			C651.072,169.965,671.14,132.777,683.187,91.185z"/>
		<path fill-rule="evenodd" clip-rule="evenodd" d="M755.494,365.817c40.457,18.746,75.587,43.374,109.156,70.722
			c-0.95-0.289-2.009-0.396-2.833-0.894c-23.009-13.865-48.396-20.895-74.482-25.846c-7.168-1.36-14.521-1.811-21.624-3.414
			c-4.389-0.99-8.927-2.693-12.605-5.227c-35.157-24.214-73.73-39.859-115.795-46.974c-1.944-0.328-3.872-0.752-5.735-1.421
			c47.806,1.453,92.802,13.732,136.354,34.839C764.004,380.727,760.079,373.85,755.494,365.817z"/>
		<path fill-rule="evenodd" clip-rule="evenodd" d="M407.905,343.286c5.682-1.732,11.46-3.202,17.027-5.245
			c19.021-6.978,33.514-18.788,40.535-38.509c0.592-1.662,2.177-3.37,3.751-4.22c10.027-5.407,20.181-10.581,29.471-15.404
			C489.659,322.201,456.909,345.822,407.905,343.286z"/>
		<path fill-rule="evenodd" clip-rule="evenodd" d="M250.526,440.804c2.18-12.887,7.865-23.598,19.293-30.369
			c3.922-2.325,8.313-3.856,12.667-0.991c4.436,2.917,4.404,7.61,3.753,12.102c-0.502,3.467-1.788,6.82-3.596,9.992
			c0.205-2.091,0.558-4.181,0.589-6.274c0.11-7.493-4.303-10.485-11.417-7.685c-8.851,3.484-14.315,10.495-18.792,18.464
			C252.145,437.604,251.356,439.215,250.526,440.804z"/>
	</g>
</g>
<path fill="none" enable-background="new    " d="z"/>
</svg>
