<svg width="404" height="507" viewBox="0 0 404 507" fill="none" xmlns="http://www.w3.org/2000/svg">
<mask id="mask0" mask-type="alpha" maskUnits="userSpaceOnUse" x="0" y="0" width="404" height="507">
<rect width="404" height="507" fill="#C4C4C4"/>
</mask>
<g mask="url(#mask0)">
<mask id="mask1" mask-type="alpha" maskUnits="userSpaceOnUse" x="-28" y="30" width="310" height="389">
<rect x="-28" y="30" width="309.323" height="388.185" rx="16" fill="#C4C4C4"/>
</mask>
<g mask="url(#mask1)">
</g>
<g opacity="0.1" clip-path="url(#clip0)">
<path d="M113.815 422.619L328.143 108.722L442.901 186.352L226.886 500.249L113.815 422.619Z" fill="url(#paint0_linear)"/>
<path d="M328.143 108.723C366.958 135.725 351.77 226.856 291.015 312.925C231.949 400.681 152.631 447.934 113.815 422.62C75.0002 395.618 90.1887 304.487 150.943 218.418C208.322 130.662 289.328 83.4087 328.143 108.723Z" fill="url(#paint1_linear)"/>
<path d="M441.214 186.352C480.029 213.354 464.84 304.486 404.086 390.554C343.332 476.623 265.701 525.564 225.198 498.562C186.383 471.56 201.572 380.428 262.326 294.36C323.08 208.291 402.398 161.038 441.214 186.352Z" fill="url(#paint2_linear)"/>
<path d="M328.143 108.722L442.902 186.353C481.717 213.355 464.841 304.486 405.774 390.555C393.961 407.431 382.147 422.62 368.646 437.808C366.959 425.995 360.208 410.806 343.332 395.618C314.643 368.616 307.892 355.115 309.58 343.301C309.58 331.488 321.393 317.987 350.083 296.048C378.772 274.109 387.21 243.732 372.022 225.168C370.334 223.48 370.334 221.793 368.646 220.105C356.833 204.917 351.77 199.854 297.766 171.164C284.265 164.414 262.326 140.787 272.452 108.722C294.391 100.284 312.955 100.284 328.143 108.722Z" fill="#0E0F23"/>
<path fill-rule="evenodd" clip-rule="evenodd" d="M321.393 120.536C355.145 144.163 338.269 226.856 282.577 306.174C226.886 387.18 156.006 434.434 122.254 410.807C88.5011 387.18 105.377 304.487 161.069 225.169C216.76 145.851 287.64 98.5972 321.393 120.536ZM270.764 194.792C287.64 206.605 279.202 247.108 252.2 287.611C225.198 326.426 189.758 350.053 172.882 338.239C156.006 326.426 164.444 285.923 191.446 245.42C218.448 206.605 253.888 182.978 270.764 194.792Z" fill="white"/>
<path d="M152.631 429.37C150.943 429.37 149.256 431.058 150.943 432.745C152.631 434.433 152.631 436.12 154.318 436.12C159.381 434.433 162.757 432.745 166.132 432.745C167.819 432.745 169.507 431.058 167.819 429.37C167.819 427.682 166.132 425.995 164.444 427.682C161.069 427.682 157.694 427.682 152.631 429.37ZM179.633 420.932C177.945 420.932 176.257 422.62 177.945 424.307C179.633 425.995 179.633 425.995 181.32 425.995C223.511 407.431 269.077 368.616 302.829 317.987C304.517 316.299 302.829 314.612 302.829 312.924C301.141 311.237 299.454 312.924 297.766 312.924C264.014 365.24 220.136 402.368 179.633 420.932ZM345.019 216.73C345.019 218.418 345.019 220.105 346.707 220.105C348.395 220.105 350.082 220.105 350.082 218.418L355.145 201.541C355.145 199.854 355.145 198.166 353.458 198.166C351.77 198.166 350.082 198.166 350.082 199.854L345.019 216.73ZM351.77 186.353C351.77 188.04 353.458 189.728 355.145 189.728C356.833 189.728 358.52 188.04 358.52 186.353C360.208 172.852 361.896 157.663 360.208 145.85C360.208 144.162 358.52 142.475 356.833 142.475C355.145 142.475 353.458 144.162 353.458 145.85C355.145 159.351 353.458 172.852 351.77 186.353Z" fill="white"/>
</g>
</g>
<defs>
<linearGradient id="paint0_linear" x1="83.337" y1="361.122" x2="297.091" y2="298.866" gradientUnits="userSpaceOnUse">
<stop stop-color="#03B8FF"/>
<stop offset="1" stop-color="#FA52A0"/>
</linearGradient>
<linearGradient id="paint1_linear" x1="68.4184" y1="309.854" x2="282.172" y2="247.597" gradientUnits="userSpaceOnUse">
<stop stop-color="#03B8FF"/>
<stop offset="1" stop-color="#FA52A0"/>
</linearGradient>
<linearGradient id="paint2_linear" x1="98.2219" y1="412.223" x2="311.976" y2="349.967" gradientUnits="userSpaceOnUse">
<stop stop-color="#03B8FF"/>
<stop offset="1" stop-color="#FA52A0"/>
</linearGradient>
<clipPath id="clip0">
<rect width="405.029" height="405.029" fill="white" transform="translate(75 507) rotate(-90)"/>
</clipPath>
</defs>
</svg>
