<svg width="30" height="30" viewBox="0 0 30 30" fill="none" xmlns="http://www.w3.org/2000/svg">
<rect x="0.25" y="0.25" width="29.5" height="29.5" rx="9.75" fill="#1F1F1F"/>
<path d="M9.66763 13.6084C10.0228 13.2549 10.5974 13.2563 10.9509 13.6115L14.1189 16.7948V11.0074C14.1189 10.5062 14.5252 10.1 15.0263 10.1C15.5275 10.1 15.9337 10.5062 15.9337 11.0074V16.7949L19.1017 13.6114C19.4553 13.2562 20.0298 13.2549 20.385 13.6084C20.7403 13.962 20.7416 14.5365 20.3881 14.8917L15.6695 19.6332C15.6692 19.6335 15.6689 19.6337 15.6686 19.634C15.3151 19.9883 14.7387 19.9894 14.384 19.634C14.3837 19.6337 14.3834 19.6335 14.3831 19.6332L9.66454 14.8918C9.3111 14.5366 9.31233 13.962 9.66763 13.6084Z" fill="#8DC33F"/>
<rect x="0.25" y="0.25" width="29.5" height="29.5" rx="9.75" stroke="#484848" stroke-width="0.5"/>
</svg>
