<svg width="20" height="20" viewBox="0 0 20 20" fill="none" xmlns="http://www.w3.org/2000/svg">
<circle cx="10" cy="10" r="10" fill="url(#paint0_linear)"/>
<path d="M9.72334 3L9.84177 3.12455L9.82952 3.16232C9.7601 3.34507 9.74887 3.5421 9.75397 3.7371L9.77133 8.22296C8.29612 8.85592 6.85357 9.56341 5.37836 10.1984C5.45595 9.9095 5.64278 9.67163 5.79387 9.41844L9.72334 3V3ZM5.35999 11.059C6.83826 11.8747 8.28182 12.7507 9.75295 13.5797L9.75601 16.6015C9.75523 16.7371 9.78054 16.8716 9.83054 16.9977L9.7897 17.1467C9.67026 17.0201 9.56204 16.8843 9.46403 16.7414L5.35999 11.059V11.059Z" fill="#828384"/>
<path d="M9.754 3.73712C9.7489 3.54213 9.76013 3.3451 9.82955 3.16235L14.1715 10.2138C13.8366 10.1382 13.5528 9.94526 13.2547 9.78702C12.0949 9.26228 10.9015 8.81103 9.77136 8.22299C9.73971 6.72736 9.7734 5.23173 9.754 3.73712V3.73712Z" fill="#313232"/>
<path d="M5.37842 10.1984C6.85363 9.56335 8.29617 8.85586 9.77138 8.2229C9.82651 9.17541 9.77751 10.13 9.79486 11.0835C9.81426 11.6205 9.73667 12.1667 9.85816 12.6965L9.86633 12.7404C9.70196 12.7496 9.57026 12.6434 9.43448 12.5679L5.37842 10.1984ZM9.75301 13.5796L14.1388 11.0702L9.8306 16.9976C9.78059 16.8716 9.75529 16.7371 9.75607 16.6015L9.75301 13.5796Z" fill="#313232"/>
<path d="M9.77136 8.2229C10.9015 8.81094 12.0949 9.26218 13.2547 9.78693C13.5528 9.94517 13.8366 10.1381 14.1715 10.2137L9.85814 12.6965C9.73665 12.1667 9.81424 11.6205 9.79484 11.0835C9.77749 10.13 9.82649 9.17541 9.77136 8.2229V8.2229Z" fill="#131313"/>
<defs>
<linearGradient id="paint0_linear" x1="4.24081" y1="1.82907" x2="15.841" y2="18.2863" gradientUnits="userSpaceOnUse">
<stop stop-color="#613FC3"/>
<stop offset="1" stop-color="#00A7A7"/>
</linearGradient>
</defs>
</svg>
