<svg width="20" height="20" viewBox="0 0 20 20" fill="none" xmlns="http://www.w3.org/2000/svg">
<circle cx="10" cy="10" r="10" fill="url(#paint0_linear)"/>
<path d="M6.46954 6.394L5.52599 9.96875L5.14282 11.5004L8.9208 11.5234C8.90233 11.9704 7.63919 16.4839 7.62071 16.9287C7.83758 16.8715 8.37566 16.226 8.60666 16.0381L11.5074 13.0858C11.577 12.963 12.7461 11.7993 12.8809 11.7185C13.0515 11.4914 13.5043 11.0439 13.7418 10.796C13.9413 10.5884 14.4897 10.0108 14.6951 9.89582C14.7832 9.73486 14.8239 9.81282 14.8571 9.60868L14.5565 9.60139L12.0884 9.58793C12.2314 9.05737 12.8869 8.70574 12.7309 6.58186C12.6477 6.22518 12.6118 6.0401 12.4537 5.71257C12.2776 5.34635 12.1787 5.25774 11.9346 4.9992C11.5123 4.55056 11.0345 4.398 10.3269 4.19386C9.86544 4.13722 7.34462 3.98468 7.06307 4.13779L6.46954 6.394Z" fill="white"/>
<defs>
<linearGradient id="paint0_linear" x1="13.5632" y1="-9.46189e-07" x2="2.22781" y2="13.4495" gradientUnits="userSpaceOnUse">
<stop stop-color="#C84F6A"/>
<stop offset="1" stop-color="#49B7E9"/>
</linearGradient>
</defs>
</svg>
