<svg width="20" height="20" viewBox="0 0 20 20" fill="none" xmlns="http://www.w3.org/2000/svg">
<circle cx="10" cy="10" r="10" fill="url(#paint0_linear)"/>
<path d="M9.99999 4.76196C7.11158 4.76196 4.76184 7.11184 4.76184 9.99994C4.76184 12.8883 7.11158 15.2382 9.99999 15.2382C12.8883 15.2382 15.238 12.8883 15.238 9.99994C15.238 7.11179 12.8883 4.76196 9.99999 4.76196ZM10.5484 8.30199C9.7611 8.66812 9.15414 9.35863 8.90075 10.201C8.69495 10.1045 8.50432 9.98117 8.33258 9.83579C8.568 9.01263 9.10912 8.32716 9.8064 7.86271C10.0246 7.71739 10.2993 7.57943 10.4908 7.52574C10.8589 7.39451 11.2538 7.31925 11.6665 7.31925C11.6842 7.31925 11.7019 7.31993 11.7198 7.32005C11.9644 7.31993 12.2285 7.34521 12.5013 7.41077C12.5282 7.41733 12.555 7.42417 12.582 7.43148C12.5857 7.43245 12.5897 7.43336 12.5936 7.43444C12.6547 7.45111 12.7158 7.46993 12.7775 7.4911C12.7871 7.49424 12.7972 7.49795 12.8068 7.50137C12.8271 7.50856 12.8474 7.51586 12.8679 7.52351C12.9213 7.54371 12.9748 7.5655 13.0284 7.58941C13.0282 7.5841 13.0276 7.57891 13.0271 7.57372C13.0276 7.57406 13.028 7.57418 13.0284 7.57418C12.9917 7.10774 12.7945 6.65722 12.6699 6.4137C12.5744 6.23916 12.4618 6.07495 12.3351 5.92312C13.7453 6.73407 14.6977 8.25555 14.6992 9.99549C14.2597 8.84089 13.1419 8.01796 11.8347 8.01796C11.5819 8.01796 11.3362 8.04906 11.1011 8.10709C10.9238 8.15068 10.7386 8.21852 10.5484 8.30199ZM13.3133 8.99523C13.1586 9.62052 12.8371 10.1804 12.397 10.6236C12.3075 9.83973 11.9914 9.12367 11.516 8.54289C11.6205 8.52988 11.727 8.52292 11.8347 8.52292C12.3854 8.52286 12.8952 8.6982 13.3133 8.99523ZM9.98761 9.31401C10.2674 9.60768 10.4781 9.96736 10.5925 10.3677C10.397 10.4159 10.1932 10.442 9.98316 10.442C9.77456 10.442 9.57202 10.4163 9.37785 10.3691C9.49425 9.96805 9.70655 9.60774 9.98761 9.31401ZM7.9377 9.41848C7.61545 8.99055 7.42419 8.45884 7.42419 7.88308C7.42419 7.82551 7.42693 7.76857 7.43053 7.71191C7.7412 7.62125 8.06933 7.57161 8.40893 7.57161C8.68565 7.57161 8.95455 7.60482 9.2129 7.66575C8.64012 8.11696 8.19428 8.72227 7.9377 9.41848ZM9.98316 5.32443C11.0345 5.32443 11.9388 5.96204 12.3315 6.87078C12.1155 6.83392 11.8932 6.81418 11.6665 6.81418C10.9767 6.81418 10.3276 6.99123 9.7615 7.3019C9.33877 7.1499 8.88346 7.06666 8.40893 7.06666C8.10607 7.06666 7.81109 7.10146 7.52729 7.16571C7.83842 6.10291 8.82121 5.32443 9.98316 5.32443ZM7.59879 5.96198C7.17412 6.48799 6.91913 7.15624 6.91913 7.88308C6.91913 9.57265 8.2935 10.947 9.98316 10.947C10.2235 10.947 10.457 10.9184 10.6815 10.8656C10.6864 10.9315 10.69 10.9977 10.69 11.0647C10.69 11.2567 10.6679 11.4438 10.6273 11.6238C10.4851 11.6368 10.3479 11.6444 10.215 11.6476C10.1135 11.6567 10.011 11.6625 9.90716 11.6625C9.38538 11.6625 8.89025 11.5477 8.44476 11.3425C7.9591 11.1334 7.58863 10.8353 7.30603 10.505C6.82613 9.97484 6.50576 9.29815 6.42103 8.55087C6.3609 8.59464 6.30458 8.63926 6.25009 8.68416C5.82793 9.02136 5.49695 9.46806 5.30079 9.98089C5.3077 8.27438 6.22893 6.77966 7.59879 5.96198ZM10.4561 12.1283C10.2176 12.6436 9.81211 13.0655 9.30882 13.3253C8.88215 12.9287 8.55448 12.4272 8.36956 11.8607C8.84341 12.0581 9.36279 12.1675 9.90728 12.1675C10.0936 12.1675 10.2765 12.1534 10.4561 12.1283ZM5.60604 11.0647C5.60604 10.4832 5.80283 9.9466 6.13301 9.51799C6.43901 10.3615 7.01978 11.0743 7.76727 11.5473C7.91476 12.305 8.27889 12.9859 8.79172 13.5241C8.58609 13.578 8.37041 13.6068 8.14812 13.6068C6.74648 13.6068 5.60604 12.4665 5.60604 11.0647ZM9.99999 14.6992C9.14672 14.6992 8.34588 14.4706 7.65539 14.0715C7.81588 14.0977 7.98026 14.1119 8.14812 14.1119C9.8282 14.1119 11.1951 12.7449 11.1951 11.0647C11.1951 10.2608 10.8812 9.52957 10.3706 8.98456C10.552 8.85744 10.7505 8.75343 10.9618 8.6764C11.3712 9.11071 11.6712 9.6487 11.8175 10.2468L11.8208 10.2435C11.8236 10.2549 11.8262 10.267 11.8291 10.2794C11.835 10.3113 11.8411 10.3433 11.8463 10.3749C11.8738 10.5087 11.8928 10.6453 11.9044 10.7841C11.9205 10.9331 11.9295 11.0934 11.9258 11.2612C11.9266 11.2612 11.9273 11.2614 11.9279 11.2614C11.9266 11.3269 11.9229 11.3935 11.9175 11.4611C11.9166 11.4613 11.9159 11.4615 11.9151 11.4615C11.8876 11.7917 11.806 12.1399 11.6354 12.4733C11.4443 12.9238 11.1821 13.2686 10.9449 13.5154C10.9379 13.5225 10.9311 13.5297 10.9244 13.5366C10.9006 13.5609 10.8775 13.5841 10.8544 13.6063C10.848 13.6122 10.8419 13.6182 10.8358 13.6241C10.8157 13.6433 10.7956 13.6618 10.7762 13.6794C10.7718 13.6835 10.7675 13.6878 10.7633 13.6915C10.7402 13.712 10.718 13.7316 10.6964 13.7501C10.6918 13.7539 10.6874 13.7576 10.6831 13.7612C10.6366 13.8004 10.5934 13.8348 10.5548 13.8643L10.5578 13.8656C10.5578 13.8656 10.7614 13.9755 11.1004 14.0583C11.1013 14.0574 11.1024 14.0564 11.1032 14.0558C11.3378 14.1136 11.5826 14.1455 11.8347 14.1455C11.982 14.1455 12.1266 14.1345 12.2683 14.1142C11.5954 14.4868 10.822 14.6992 9.99999 14.6992ZM11.8347 13.6404C11.7272 13.6404 11.6207 13.6333 11.5164 13.6202C12.0437 12.9761 12.3754 12.1663 12.419 11.2816C13.0277 10.7918 13.4905 10.1284 13.7328 9.36753C14.1432 9.82159 14.3937 10.4227 14.3937 11.0816C14.3937 12.4926 13.2459 13.6404 11.8347 13.6404Z" fill="white"/>
<defs>
<linearGradient id="paint0_linear" x1="4.24081" y1="1.82907" x2="15.841" y2="18.2863" gradientUnits="userSpaceOnUse">
<stop stop-color="#8DC33F"/>
<stop offset="1" stop-color="#00A7A7"/>
</linearGradient>
</defs>
</svg>
