<svg width="20" height="20" viewBox="0 0 20 20" fill="none" xmlns="http://www.w3.org/2000/svg">
<circle cx="10" cy="10" r="10" transform="rotate(-90 10 10)" fill="url(#paint0_linear)"/>
<g clip-path="url(#clip0)">
<path d="M7.08329 5.95825L14.8333 11.2499L12.9166 14.0832L5.16663 8.74992L7.08329 5.95825Z" fill="white"/>
<path d="M14.8333 11.25C14.1666 12.2083 11.9166 11.8333 9.7916 10.3333C7.62493 8.87501 6.45827 6.91667 7.08326 5.95834C7.74993 5.00001 9.99993 5.37501 12.1249 6.87501C14.2916 8.29167 15.4583 10.2917 14.8333 11.25Z" fill="#BEBEBE"/>
<path d="M12.9167 14.0417C12.25 15 10 14.625 7.87502 13.125C5.75001 11.625 4.54168 9.70834 5.20835 8.70834C5.87501 7.75001 8.12502 8.12501 10.25 9.62501C12.375 11.125 13.5417 13.0833 12.9167 14.0417Z" fill="white"/>
<path d="M14.8334 11.2499L12.9167 14.0833C12.25 15.0416 10 14.6249 7.87504 13.1666C7.45837 12.8749 7.08337 12.5833 6.70837 12.2499C7.00004 12.2083 7.37504 12.0416 7.75004 11.6249C8.41671 10.9166 8.75004 10.7499 9.04171 10.7916C9.33337 10.7916 9.66671 11.0833 10.2084 11.7916C10.75 12.4999 11.5 12.7083 11.9584 12.3333C12 12.2916 12.0417 12.2916 12.0834 12.2499C12.4584 11.9583 12.5834 11.8333 13.2917 10.4999C13.4584 10.1666 14.0417 9.62493 14.8334 9.87493C15.0417 10.4166 15.0417 10.8749 14.8334 11.2499Z" fill="#E2E2E2"/>
<path fill-rule="evenodd" clip-rule="evenodd" d="M14.5417 11.0833C13.9583 11.9167 11.9167 11.5 9.95832 10.125C7.95832 8.75001 6.79166 7.00001 7.37499 6.16668C7.95832 5.33335 9.99999 5.75001 11.9583 7.12501C13.9167 8.50001 15.0833 10.25 14.5417 11.0833ZM12.7083 9.83334C12.4167 10.25 11.4167 10.0417 10.4167 9.37501C9.45832 8.70834 8.87499 7.83334 9.16666 7.41668C9.45832 7.00001 10.4583 7.20834 11.4583 7.87501C12.4167 8.54168 13 9.41668 12.7083 9.83334Z" fill="white"/>
<path d="M6.91667 6.91659C6.91667 6.87492 6.875 6.83326 6.83333 6.87492C6.79167 6.91659 6.75 6.91659 6.75 6.95826C6.79167 7.08326 6.83333 7.16659 6.83333 7.24992C6.83333 7.29159 6.875 7.33326 6.91667 7.29159C6.95833 7.29159 7 7.24992 6.95833 7.20826C6.95833 7.12492 6.95833 7.04159 6.91667 6.91659ZM7.125 7.58326C7.125 7.54159 7.08333 7.49992 7.04167 7.54159C7 7.58326 7 7.58326 7 7.62492C7.45833 8.66659 8.41667 9.79159 9.66667 10.6249C9.70833 10.6666 9.75 10.6249 9.79167 10.6249C9.83333 10.5833 9.79167 10.5416 9.79167 10.4999C8.5 9.66659 7.58333 8.58326 7.125 7.58326ZM12.1667 11.6666C12.125 11.6666 12.0833 11.6666 12.0833 11.7083C12.0833 11.7499 12.0833 11.7916 12.125 11.7916L12.5417 11.9166C12.5833 11.9166 12.625 11.9166 12.625 11.8749C12.625 11.8333 12.625 11.7916 12.5833 11.7916L12.1667 11.6666ZM12.9167 11.8333C12.875 11.8333 12.8333 11.8749 12.8333 11.9166C12.8333 11.9583 12.875 11.9999 12.9167 11.9999C13.25 12.0416 13.625 12.0833 13.9167 12.0416C13.9583 12.0416 14 11.9999 14 11.9583C14 11.9166 13.9583 11.8749 13.9167 11.8749C13.5833 11.9166 13.25 11.8749 12.9167 11.8333Z" fill="#BEBEBE"/>
</g>
<defs>
<linearGradient id="paint0_linear" x1="13.5632" y1="-9.46189e-07" x2="2.22781" y2="13.4495" gradientUnits="userSpaceOnUse">
<stop stop-color="#C84F6A"/>
<stop offset="1" stop-color="#25627D"/>
</linearGradient>
<clipPath id="clip0">
<rect width="10" height="10" fill="white" transform="translate(5 5)"/>
</clipPath>
</defs>
</svg>
