<svg width="404" height="507" viewBox="0 0 404 507" fill="none" xmlns="http://www.w3.org/2000/svg">
<mask id="mask0" mask-type="alpha" maskUnits="userSpaceOnUse" x="0" y="0" width="404" height="507">
<rect width="404" height="507" fill="#C4C4C4"/>
</mask>
<g mask="url(#mask0)">
<g opacity="0.1">
<mask id="mask1" mask-type="alpha" maskUnits="userSpaceOnUse" x="-28" y="30" width="310" height="389">
<rect x="-28" y="30" width="309.323" height="388.185" rx="16" fill="#C4C4C4"/>
</mask>
<g mask="url(#mask1)">
</g>
<path d="M163.113 110.991C157.673 110.15 157.444 110.052 160.004 109.659C164.91 108.908 176.494 109.932 184.477 111.823C203.113 116.237 220.071 127.544 238.173 147.625L242.982 152.96L249.861 151.858C278.844 147.217 308.328 150.906 332.988 162.256C339.772 165.379 350.47 171.595 351.806 173.192C352.232 173.701 353.013 176.978 353.542 180.475C355.373 192.573 354.456 201.846 350.745 208.772C348.723 212.541 348.61 213.735 349.969 216.961C351.054 219.535 354.077 221.44 357.071 221.436C363.198 221.427 369.797 211.557 372.852 197.823L374.067 192.367L376.471 195.082C389.662 209.973 400.024 230.281 401.804 244.737L402.266 248.506L400.051 245.08C396.235 239.184 392.399 235.17 387.49 231.933C378.638 226.098 369.279 224.112 344.496 222.811C322.111 221.636 309.442 219.731 296.88 215.649C275.507 208.706 264.732 199.459 239.343 166.27C228.067 151.529 221.097 143.373 214.163 136.805C198.409 121.88 182.929 114.053 163.113 110.991Z" fill="white"/>
<path d="M356.861 143.906C357.425 134.028 358.767 127.512 361.472 121.562C362.543 119.207 363.544 117.279 363.7 117.279C363.853 117.279 363.387 119.017 362.664 121.142C360.7 126.916 360.376 134.815 361.73 144.004C363.448 155.664 364.426 157.346 376.796 169.941C382.596 175.849 389.345 183.3 391.789 186.499L396.239 192.316L391.789 188.159C386.351 183.075 373.842 173.162 371.079 171.744C369.225 170.794 368.95 170.811 367.808 171.944C366.755 172.988 366.532 174.557 366.387 181.976C366.159 193.539 364.576 200.96 360.761 208.381C358.695 212.394 358.368 211.538 360.237 207.007C361.631 203.625 361.773 202.138 361.764 190.945C361.741 168.455 359.062 163.048 343.348 153.786C339.368 151.44 332.807 148.056 328.771 146.266C324.735 144.477 321.529 142.917 321.646 142.801C322.091 142.36 337.415 146.817 343.586 149.181C352.762 152.697 354.275 153.153 355.389 152.729C356.138 152.445 356.499 150.277 356.861 143.906Z" fill="white"/>
<path d="M173.681 182.378C162.637 167.229 155.804 144.002 157.283 126.639L157.741 121.265L160.255 121.722C164.976 122.58 173.115 125.599 176.927 127.906C187.386 134.234 191.914 142.567 196.521 163.965C197.87 170.232 199.641 177.325 200.455 179.726C201.767 183.591 206.722 192.618 210.752 198.481C213.654 202.704 211.726 204.705 205.311 204.128C195.513 203.247 182.242 194.121 173.681 182.378Z" fill="white"/>
<path d="M343.46 295.125C291.85 274.42 273.673 256.448 273.673 226.125C273.673 221.662 273.827 218.011 274.015 218.011C274.203 218.011 276.2 219.484 278.452 221.284C288.918 229.648 300.637 233.22 333.081 237.936C352.174 240.711 362.918 242.953 372.829 246.228C404.329 256.637 423.818 277.761 428.467 306.533C429.818 314.893 429.025 330.571 426.836 338.834C425.108 345.361 419.832 357.124 418.432 357.577C418.044 357.702 417.665 356.22 417.564 354.204C417.035 343.4 411.555 332.882 402.353 325.003C391.89 316.045 377.833 308.913 343.46 295.125Z" fill="white"/>
<path d="M307.232 303.728C306.585 299.893 305.463 294.997 304.739 292.847L303.422 288.938L305.868 291.673C309.253 295.458 311.928 300.302 314.195 306.754C315.925 311.678 316.12 313.143 316.107 321.145C316.094 329 315.878 330.647 314.28 335.079C311.761 342.069 308.634 347.025 303.387 352.344C293.96 361.905 281.839 367.197 264.347 369.393C261.307 369.773 252.445 370.416 244.654 370.82C225.021 371.837 212.099 373.94 200.487 378.003C198.818 378.586 197.328 378.943 197.176 378.792C196.706 378.325 204.612 373.63 211.142 370.495C220.349 366.075 229.514 363.665 250.05 360.258C260.194 358.573 270.67 356.531 273.33 355.719C298.451 348.045 311.364 328.241 307.232 303.728Z" fill="white"/>
<path d="M330.89 345.592C324.033 330.905 322.458 316.724 326.215 303.499C326.617 302.086 327.263 300.929 327.652 300.929C328.041 300.929 329.659 301.801 331.247 302.866C334.408 304.985 340.746 308.555 357.629 317.727C378.698 329.173 390.712 338.035 398.881 348.16C406.035 357.027 410.461 367.128 412.593 379.444C413.8 386.419 413.091 403.204 411.294 410.228C405.63 432.378 392.465 449.775 373.687 459.928C370.936 461.415 368.466 462.636 368.2 462.642C367.931 462.648 368.934 460.108 370.427 456.999C376.742 443.841 377.462 431.044 372.686 416.799C369.762 408.076 363.8 397.433 351.762 379.444C337.764 358.532 334.333 352.967 330.89 345.592Z" fill="white"/>
<path d="M137.034 424.837C156.187 408.725 180.017 397.279 201.724 393.764C211.079 392.25 226.664 392.85 235.327 395.06C249.213 398.601 261.634 406.533 268.094 415.981C274.408 425.214 277.116 433.262 279.936 451.166C281.049 458.231 282.259 465.321 282.625 466.928C284.743 476.208 288.864 483.623 293.971 487.35C302.082 493.266 316.05 493.631 329.79 488.292C332.122 487.385 334.146 486.758 334.288 486.9C334.788 487.393 327.868 492.007 322.987 494.437C316.419 497.706 311.197 498.97 304.257 498.97C291.673 498.97 281.226 492.593 272.508 479.586C270.792 477.026 266.936 469.361 263.939 462.549C254.734 441.631 250.189 435.26 239.502 428.286C230.201 422.219 218.206 421.131 209.183 425.539C197.33 431.33 194.023 446.422 202.512 455.986C205.886 459.788 212.178 463.065 217.323 463.703C226.948 464.898 235.22 457.602 235.22 447.918C235.22 441.631 232.795 438.044 226.69 435.298C218.351 431.548 209.387 435.93 209.43 443.737C209.449 447.066 210.903 449.154 214.252 450.665C216.4 451.633 216.45 451.709 214.698 451.346C207.047 449.766 205.255 440.576 211.406 434.474C218.792 427.152 234.065 430.382 239.31 440.381C241.513 444.581 241.769 452.944 239.848 457.993C235.549 469.297 223.013 475.239 210.296 472.006C201.638 469.802 198.112 467.418 187.674 456.705C169.535 438.087 162.493 434.48 136.343 430.414L131.332 429.634L137.034 424.837Z" fill="white"/>
<path fill-rule="evenodd" clip-rule="evenodd" d="M51.9211 91.6355C112.497 164.889 154.218 195.112 158.854 201.497C162.682 206.769 161.242 211.51 154.684 215.224C151.037 217.29 143.539 219.382 139.785 219.382C135.539 219.382 134.081 217.751 134.081 217.751C131.619 215.424 130.232 215.831 117.589 193.471C100.037 166.334 85.3483 143.824 84.9476 143.447C84.021 142.575 84.0369 142.604 115.8 199.23C120.932 211.032 116.821 215.364 116.821 217.045C116.821 220.464 115.884 222.262 111.651 226.967C104.593 234.812 101.438 243.626 99.1605 261.869C96.6075 282.319 89.428 296.764 69.532 321.487C57.8855 335.959 55.9798 338.612 53.0411 344.444C49.3395 351.79 48.3217 355.904 47.9092 365.178C47.4732 374.986 48.3224 381.323 51.3295 390.698C53.9622 398.908 56.7102 404.329 63.7354 415.169C69.798 424.524 73.2888 431.478 73.2888 434.198C73.2888 436.362 73.7036 436.365 83.0982 434.251C105.581 429.193 123.836 420.296 134.103 409.392C140.458 402.644 141.95 398.917 141.998 389.672C142.03 383.623 141.816 382.355 140.175 378.875C137.504 373.212 132.641 368.502 121.922 361.203C107.878 351.636 101.879 343.935 100.223 333.345C98.8634 324.655 100.44 318.524 108.21 302.299C116.251 285.506 118.244 278.349 119.592 261.422C120.463 250.486 121.669 246.173 124.822 242.711C128.111 239.101 131.072 237.878 139.212 236.77C152.482 234.964 160.932 231.543 167.878 225.166C173.903 219.634 176.425 214.303 176.811 206.279L177.105 200.197L173.738 196.285C161.544 182.119 43.755 80.5 43.0046 80.5C42.8443 80.5 46.8569 85.5113 51.9211 91.6355ZM80.1339 376.277C82.8908 371.411 81.4258 365.158 76.8143 362.102C72.4571 359.216 65.6881 360.576 65.6881 364.338C65.6881 365.486 66.3252 366.321 67.761 367.058C70.1788 368.296 70.3543 369.691 68.452 372.539C66.5256 375.424 66.681 377.962 68.8908 379.684C72.4522 382.462 77.4936 380.934 80.1339 376.277Z" fill="white"/>
<path fill-rule="evenodd" clip-rule="evenodd" d="M185.483 239.96C179.253 241.867 173.197 248.446 171.323 255.343C170.179 259.552 170.828 266.933 172.541 269.213C175.308 272.895 177.984 273.865 185.23 273.814C199.418 273.716 211.751 267.653 213.185 260.075C214.36 253.862 208.944 245.252 201.482 241.472C197.632 239.522 189.444 238.749 185.483 239.96ZM202.067 252.882C204.255 249.784 203.298 246.437 199.577 244.173C192.491 239.862 181.776 243.429 181.776 250.099C181.776 253.419 187.364 257.041 192.486 257.041C195.895 257.041 200.561 255.016 202.067 252.882Z" fill="white"/>
</g>
</g>
</svg>
