<svg width="16" height="16" viewBox="0 0 16 16" fill="none" xmlns="http://www.w3.org/2000/svg">
<circle cx="8" cy="8" r="8" fill="url(#paint0_linear)"/>
<path d="M9.46269 8.80922C9.46269 7.99999 8.9973 7.72254 8.06648 7.60694C7.40163 7.51445 7.26866 7.32949 7.26866 7.00575C7.26866 6.68201 7.49028 6.47398 7.93351 6.47398C8.33245 6.47398 8.55407 6.6127 8.66487 6.95952C8.68704 7.02888 8.75353 7.07511 8.82001 7.07511H9.17458C9.26324 7.07511 9.32972 7.00575 9.32972 6.91331V6.91331C9.32972 6.8979 9.32845 6.88246 9.32552 6.86733C9.2658 6.55926 9.0918 6.29548 8.84876 6.12844C8.58977 5.95044 8.33245 5.70156 8.33245 5.3873V5.3873V5.3873C8.33245 5.20166 8.0616 5.20228 7.87597 5.20228H7.82274C7.74784 5.20228 7.68878 5.25175 7.65887 5.33679C7.64733 5.36962 7.6454 5.40482 7.6454 5.43962V5.43962C7.6454 5.71448 7.43433 5.93449 7.18839 6.05722C6.79362 6.25422 6.55949 6.62098 6.55949 7.05204C6.55949 7.81503 7.00272 8.11559 7.93351 8.23124C8.55407 8.34681 8.75353 8.48553 8.75353 8.85551C8.75353 9.22548 8.44322 9.47977 8.02219 9.47977C7.44594 9.47977 7.24646 9.22542 7.17997 8.87858C7.15786 8.78614 7.09137 8.73985 7.02489 8.73985H6.64809C6.55949 8.73985 6.49301 8.80922 6.49301 8.90174V8.90174C6.49301 8.91714 6.49414 8.93261 6.49668 8.94779C6.56433 9.35345 6.76573 9.67727 7.14 9.87022C7.42405 10.0167 7.66757 10.27 7.66757 10.5896V10.5896V10.5896C7.66757 10.7752 7.93839 10.7746 8.124 10.7746H8.17728C8.25104 10.7746 8.30945 10.7266 8.33977 10.6439C8.35267 10.6087 8.35462 10.5707 8.35462 10.5333V10.5333C8.35462 10.2451 8.57132 10.0119 8.82419 9.87364C9.21991 9.6573 9.46269 9.27126 9.46269 8.80922ZM7.00272 11.4451C7.00272 11.276 6.78803 11.2099 6.63486 11.1383C5.06219 10.4036 4.28437 8.49554 4.89731 6.79766C5.22977 5.82655 5.9611 5.08669 6.86972 4.73987C6.9584 4.69364 7.00272 4.62428 7.00272 4.50862V4.18496C7.00272 4.10363 6.96847 4.04019 6.89993 4.01036C6.88047 4.00189 6.86232 3.99915 6.84118 4.00091V4.00091C6.80057 4.00428 6.76056 4.02968 6.72206 4.04304C4.65423 4.76055 3.52947 7.07265 4.1881 9.24855C4.58112 10.5243 5.51205 11.5082 6.72637 11.935C6.76265 11.9477 6.79766 11.9667 6.83587 11.971C6.87145 11.9751 6.90466 11.9648 6.93073 11.9437C6.98052 11.9032 7.00272 11.833 7.00272 11.7688V11.7688V11.4451V11.4451ZM9.27212 4.04166C9.23683 4.02905 9.2028 4.01061 9.16561 4.00599C9.12947 4.00151 9.09571 4.01172 9.06929 4.03319C9.01947 4.07367 8.9973 4.14391 8.9973 4.20809V4.20809V4.53178V4.53178C8.9973 4.71518 9.219 4.79211 9.38463 4.87084C10.9442 5.61215 11.7131 7.51148 11.1027 9.20232C10.7702 10.1734 10.0389 10.9133 9.13027 11.2601C9.04161 11.3063 8.9973 11.3757 8.9973 11.4914V11.815C8.9973 11.8963 9.03153 11.9598 9.10002 11.9896C9.1195 11.9981 9.13769 12.0009 9.15886 11.9991V11.9991C9.19946 11.9957 9.23945 11.9703 9.27794 11.9569C11.3458 11.2395 12.4705 8.92734 11.8119 6.75143C11.4188 5.45272 10.4661 4.46833 9.27212 4.04166Z" fill="white"/>
<defs>
<linearGradient id="paint0_linear" x1="8" y1="0" x2="8" y2="16" gradientUnits="userSpaceOnUse">
<stop stop-color="#6AB8F9"/>
<stop offset="1" stop-color="#4970F6"/>
</linearGradient>
</defs>
</svg>
