<svg width="24" height="24" viewBox="0 0 24 24" fill="none" xmlns="http://www.w3.org/2000/svg">
<path d="M20.5385 2.07697H3.46153C1.55283 2.07697 0 3.62979 0 5.5385V18.4616C0 20.3703 1.55283 21.9231 3.46153 21.9231H20.5385C22.4472 21.9231 24 20.3703 24 18.4616V5.5385C24 3.62979 22.4472 2.07697 20.5385 2.07697ZM22.6154 14.077H17.5385C16.3933 14.077 15.4615 13.1453 15.4615 12C15.4615 10.8548 16.3932 9.92309 17.5385 9.92309H22.6154V14.077ZM22.6154 8.5385H17.5385C15.6298 8.5385 14.0769 10.0913 14.0769 12C14.0769 13.9087 15.6298 15.4616 17.5385 15.4616H22.6154V18.4616C22.6154 19.6068 21.6837 20.5385 20.5385 20.5385H3.46153C2.31633 20.5385 1.38459 19.6068 1.38459 18.4616V5.5385C1.38459 4.39329 2.31628 3.46156 3.46153 3.46156H20.5385C21.6837 3.46156 22.6154 4.39325 22.6154 5.5385V8.5385Z" fill="white"/>
<path d="M18.4616 11.3077H17.5385C17.1561 11.3077 16.8462 11.6177 16.8462 12C16.8462 12.3823 17.1562 12.6923 17.5385 12.6923H18.4616C18.8439 12.6923 19.1538 12.3823 19.1538 12C19.1538 11.6176 18.8439 11.3077 18.4616 11.3077Z" fill="white"/>
</svg>
