<svg width="20" height="20" viewBox="0 0 20 20" fill="none" xmlns="http://www.w3.org/2000/svg">
<g clip-path="url(#clip0)">
<path d="M19.7002 12.4198C18.3645 17.777 12.9379 21.0373 7.57944 19.7013C2.22325 18.3658 -1.0374 12.9395 0.298909 7.58271C1.63404 2.22492 7.06062 -1.03561 12.4174 0.299967C17.7754 1.63554 21.0359 7.06244 19.7 12.4199L19.7001 12.4198H19.7002Z" fill="#F7931A"/>
<path d="M14.4101 8.57528C14.6091 7.2445 13.5958 6.52915 12.2103 6.05195L12.6598 4.24928L11.5623 3.97585L11.1247 5.73105L10.2454 5.5241L10.6862 3.75732L9.58941 3.48389L9.13967 5.28596L8.43891 5.12129L8.44019 5.11562L6.92677 4.73773L6.63483 5.90976C6.63483 5.90976 7.44905 6.09638 7.43189 6.10786C7.8763 6.21877 7.95667 6.51292 7.94332 6.74608L7.43131 8.79973C7.46191 8.8075 7.5016 8.81875 7.5454 8.83634L7.4294 8.80765L6.71173 11.6845C6.65741 11.8195 6.51956 12.0221 6.20885 11.9452C6.21985 11.9611 5.4112 11.7462 5.4112 11.7462L4.86633 13.0023L6.2945 13.3582L7.07694 13.5601L6.6228 15.3835L7.71899 15.6569L8.16873 13.8529L9.04332 14.0798L8.5951 15.8753L9.69261 16.1488L10.1467 14.3288C12.0181 14.683 13.4252 14.5402 14.0175 12.8477C14.4948 11.4851 13.9938 10.6991 13.0092 10.1865C13.7263 10.0212 14.2664 9.54959 14.4105 8.57543L14.4101 8.57518L14.4101 8.57528ZM11.9026 12.091C11.5635 13.4536 9.26893 12.717 8.525 12.5323L9.12765 10.1167C9.87153 10.3024 12.2571 10.6698 11.9027 12.091H11.9026ZM12.242 8.55553C11.9326 9.79501 10.0229 9.1653 9.40336 9.01089L9.94974 6.82008C10.5693 6.97449 12.5643 7.26268 12.2421 8.55553H12.242Z" fill="white"/>
</g>
<defs>
<clipPath id="clip0">
<rect width="20" height="20" fill="white"/>
</clipPath>
</defs>
</svg>
